<svg
        version="1.1"
        id="svg2"
        width="749.52002"
        height="399.16"
        viewBox="0 0 749.52002 399.16"
        sodipodi:docname="marchio_unipi_pant541.eps"
        xmlns:inkscape="http://www.inkscape.org/namespaces/inkscape"
        xmlns:sodipodi="http://sodipodi.sourceforge.net/DTD/sodipodi-0.dtd"
        xmlns="http://www.w3.org/2000/svg"
        xmlns:svg="http://www.w3.org/2000/svg"
        class="logo">
    <defs
            id="defs6" />
    <sodipodi:namedview
            id="namedview4"
            pagecolor="#ffffff"
            bordercolor="#000000"
            borderopacity="0.25"
            inkscape:showpageshadow="2"
            inkscape:pageopacity="0.0"
            inkscape:pagecheckerboard="0"
            inkscape:deskcolor="#d1d1d1" />
    <g
            id="g8"
            inkscape:groupmode="layer"
            inkscape:label="ink_ext_XXXXXX"
            transform="matrix(1.3333333,0,0,-1.3333333,0,399.16)">
        <g
                id="g10"
                transform="scale(0.1)">
            <path
                    d="m 3702.18,340.559 h 58.32 c 47.52,0 75.61,-12.227 99.36,-43.918 19.45,-25.918 28.81,-59.036 28.81,-102.957 0,-50.403 -12.25,-86.411 -40.33,-115.1996 -25.92,-26.6485 -50.39,-35.2813 -95.04,-35.2813 h -51.12 z m 56.16,-329.7582 c 56.89,0 96.48,10.8008 130.33,34.5586 46.07,33.125 71.99,88.5586 71.99,154.8086 0,50.391 -15.12,90.723 -46.07,123.836 -36,38.152 -68.4,48.23 -147.6,48.23 H 3584.1 v -15.836 l 54,-21.593 V 48.2422 l -54,-20.8789 V 10.8008 h 174.24"
                    style="fill:#104f8c;fill-opacity:1;fill-rule:nonzero;stroke:none"
                    id="path12" />
            <path
                    d="m 3991.85,10.8008 v 16.5625 l 54.01,20.8789 V 334.805 l -54.01,21.593 v 15.836 h 172.09 v -15.836 l -54,-21.593 V 48.2422 l 54,-20.8789 V 10.8008 h -172.09"
                    style="fill:#104f8c;fill-opacity:1;fill-rule:nonzero;stroke:none"
                    id="path14" />
            <path
                    d="m 4459.61,462.246 h 49.68 c 41.04,0 61.19,-8.641 79.92,-31.687 15.12,-20.161 22.33,-46.079 22.33,-75.598 0,-30.242 -7.21,-55.438 -22.33,-74.871 -20.15,-25.93 -47.51,-36.723 -96.48,-36.723 h -33.12 z m 74.88,-451.4452 v 18 l -74.88,25.2031 V 215.281 h 50.41 c 106.56,0 173.51,54.731 173.51,141.836 0,41.047 -13.67,73.442 -41.76,97.934 -29.53,25.918 -65.52,35.996 -128.88,35.996 h -182.17 v -18.008 l 60.49,-25.195 V 54.0039 l -60.49,-25.2031 v -18 h 203.77"
                    style="fill:#104f8c;fill-opacity:1;fill-rule:nonzero;stroke:none"
                    id="path16" />
            <path
                    d="m 4730.89,10.8008 v 16.5625 l 54.01,20.8789 V 334.805 l -54.01,21.593 v 15.836 h 172.09 v -15.836 l -54,-21.593 V 48.2422 l 54,-20.8789 V 10.8008 h -172.09"
                    style="fill:#104f8c;fill-opacity:1;fill-rule:nonzero;stroke:none"
                    id="path18" />
            <path
                    d="m 4965.19,21.6016 v 85.6714 h 22.31 l 28.08,-64.7925 c 22.33,-5.0391 33.13,-6.4844 48.24,-6.4844 47.52,0 73.44,20.168 73.44,57.6094 0,25.9175 -9.35,37.4415 -46.8,61.1915 l -56.17,34.566 c -50.39,31.684 -65.5,52.563 -65.5,92.16 0,59.754 45.35,98.645 117.36,98.645 25.19,0 61.19,-4.316 95.76,-11.523 l 8.63,-2.161 v -83.523 h -22.32 l -27.36,61.922 c -19.44,2.16 -29.52,2.883 -41.76,2.883 -48.24,0 -73.44,-17.286 -73.44,-49.692 0,-21.59 7.21,-30.23 44.65,-53.269 l 59.74,-38.164 c 61.22,-37.43 74.89,-56.883 74.89,-100.801 0,-61.9142 -50.39,-102.23453 -128.17,-102.23453 -23.75,0 -61.19,5.75781 -104.39,16.55083 l -7.19,1.4453"
                    style="fill:#104f8c;fill-opacity:1;fill-rule:nonzero;stroke:none"
                    id="path20" />
            <path
                    d="m 5412.59,308.164 6.47,-18.723 9.37,-25.191 30.24,-84.961 h -97.93 z M 5465.15,154.082 5503.3,48.2422 5458.67,27.3633 V 10.8008 h 162.71 v 16.5625 l -48.24,20.8789 -123.83,327.6098 h -41.76 L 5270.02,48.2422 5221.79,27.3633 V 10.8008 h 133.19 v 16.5625 l -43.91,20.8789 39.59,105.8398 h 114.49"
                    style="fill:#104f8c;fill-opacity:1;fill-rule:nonzero;stroke:none"
                    id="path22" />
            <path
                    d="m 0,473.039 v 18.008 h 189.359 v -18.008 l -60.484,-25.195 v -288 c 0,-86.3987 37.441,-124.5627 120.965,-124.5627 87.84,0 126.723,37.4453 126.723,120.9567 v 291.606 l -60.485,25.195 v 18.008 h 168.481 v -18.008 l -61.2,-25.195 V 172.082 C 423.359,98.6445 404.637,57.5977 357.117,28.0742 324.723,7.92188 291.602,0 237.598,0 115.918,0 60.4766,48.2422 60.4766,154.082 V 447.844 L 0,473.039"
                    style="fill:#104f8c;fill-opacity:1;fill-rule:nonzero;stroke:none"
                    id="path24" />
            <path
                    d="m 481.16,10.8008 v 16.5625 l 54.008,20.8789 V 334.805 l -54.008,21.593 v 15.836 H 589.883 L 789.324,113.762 v 221.043 l -53.996,21.593 v 15.836 H 878.609 V 356.398 L 825.328,334.805 V 7.19531 H 795.805 L 571.16,302.402 V 48.2422 L 624.441,27.3633 V 10.8008 H 481.16"
                    style="fill:#104f8c;fill-opacity:1;fill-rule:nonzero;stroke:none"
                    id="path26" />
            <path
                    d="m 925.438,10.8008 v 16.5625 l 54,20.8789 V 334.805 l -54,21.593 v 15.836 h 172.082 v -15.836 l -54,-21.593 V 48.2422 l 54,-20.8789 V 10.8008 H 925.438"
                    style="fill:#104f8c;fill-opacity:1;fill-rule:nonzero;stroke:none"
                    id="path28" />
            <path
                    d="m 1278.95,7.19531 -126.72,327.60969 -44.64,21.593 v 15.836 h 157.68 v -15.836 l -44.64,-21.593 75.6,-213.125 c 3.6,-10.078 6.48,-18.719 12.96,-39.598 l 100.08,252.723 -43.92,21.593 v 15.836 h 128.88 V 356.398 L 1448.15,334.805 1313.51,7.19531 h -34.56"
                    style="fill:#104f8c;fill-opacity:1;fill-rule:nonzero;stroke:none"
                    id="path30" />
            <path
                    d="M 1624.54,182.883 V 39.6016 h 120.24 l 33.85,53.2812 h 21.59 l -8.64,-82.082 h -285.12 v 16.5625 l 54,20.8789 V 334.805 l -54,21.593 v 15.836 h 282.96 v -82.066 h -22.32 l -25.92,57.598 H 1624.54 V 208.074 h 95.04 l 19.44,46.086 h 21.6 V 136.086 h -21.6 l -19.44,46.797 h -95.04"
                    style="fill:#104f8c;fill-opacity:1;fill-rule:nonzero;stroke:none"
                    id="path32" />
            <path
                    d="m 1967.43,347.766 h 41.03 c 43.2,0 64.81,-22.328 64.81,-67.676 0,-45.371 -24.48,-72.016 -66.24,-72.016 h -39.6 z M 1988.3,182.883 2115.02,10.8008 h 90.73 V 27.3633 L 2163.27,48.2422 2056.7,190.801 c 57.61,19.441 84.96,50.398 84.96,95.762 0,28.078 -12.23,51.843 -33.83,66.96 -20.88,15.122 -38.88,18.711 -87.12,18.711 h -171.37 v -15.836 l 54,-21.593 V 48.2422 l -54,-20.8789 V 10.8008 h 172.09 v 16.5625 l -54,20.8789 V 182.883 h 20.87"
                    style="fill:#104f8c;fill-opacity:1;fill-rule:nonzero;stroke:none"
                    id="path34" />
            <path
                    d="m 2241.24,21.6016 v 85.6714 h 22.32 l 28.08,-64.7925 c 22.32,-5.0391 33.11,-6.4844 48.24,-6.4844 47.52,0 73.44,20.168 73.44,57.6094 0,25.9175 -9.36,37.4415 -46.81,61.1915 l -56.15,34.566 c -50.4,31.684 -65.52,52.563 -65.52,92.16 0,59.754 45.37,98.645 117.36,98.645 25.2,0 61.2,-4.316 95.76,-11.523 l 8.64,-2.161 v -83.523 h -22.31 l -27.37,61.922 c -19.44,2.16 -29.52,2.883 -41.75,2.883 -48.25,0 -73.45,-17.286 -73.45,-49.692 0,-21.59 7.2,-30.23 44.64,-53.269 l 59.77,-38.164 C 2467.31,169.211 2481,149.758 2481,105.84 2481,43.9258 2430.59,3.60547 2352.84,3.60547 c -23.76,0 -61.2,5.75781 -104.4,16.55083 l -7.2,1.4453"
                    style="fill:#104f8c;fill-opacity:1;fill-rule:nonzero;stroke:none"
                    id="path36" />
            <path
                    d="m 2527.42,10.8008 v 16.5625 l 54,20.8789 V 334.805 l -54,21.593 v 15.836 h 172.08 v -15.836 l -54.01,-21.593 V 48.2422 L 2699.5,27.3633 V 10.8008 h -172.08"
                    style="fill:#104f8c;fill-opacity:1;fill-rule:nonzero;stroke:none"
                    id="path38" />
            <path
                    d="M 2863,48.2422 V 344.172 h -78.49 l -28.13,-61.211 h -22.32 v 89.273 h 321.89 v -89.273 h -21.6 l -24.47,61.211 h -82.79 V 48.2422 l 57.59,-20.8789 V 10.8008 H 2805.39 V 27.3633 L 2863,48.2422"
                    style="fill:#104f8c;fill-opacity:1;fill-rule:nonzero;stroke:none"
                    id="path40" />
            <path
                    d="m 3222.63,308.164 6.47,-18.723 9.37,-25.191 30.24,-84.961 h -97.93 z m 52.56,-154.082 38.17,-105.8398 -44.65,-20.8789 V 10.8008 h 162.71 v 16.5625 l -48.24,20.8789 -123.83,327.6098 h -41.76 L 3080.07,48.2422 3031.83,27.3633 V 10.8008 h 133.21 v 16.5625 l -43.93,20.8789 39.59,105.8398 z m -79.92,354.961 h -98.65 l 138.24,-104.402 h 36.02 l -75.61,104.402"
                    style="fill:#104f8c;fill-opacity:1;fill-rule:nonzero;stroke:none"
                    id="path42" />
            <path
                    d="m 2529.81,997.98 29.91,89.93 -52.4,6.76 2.73,8.19 c 19.99,-0.36 34.87,0.98 55.03,4.93 13.76,2.66 15.84,3.22 24.22,6.72 l 8.2,-2.73 -40.82,-122.737 27.62,-19.855 -2.35,-7.079 -87.1,28.965 2.35,7.078 32.61,-0.172"
                    style="fill:#104f8c;fill-opacity:1;fill-rule:nonzero;stroke:none"
                    id="path44" />
            <path
                    d="m 2652.14,901.758 4.95,42.324 10.66,-1.238 7.5,-30.879 c 6.1,-1.613 10.77,-2.754 19.94,-3.828 18.08,-2.114 27.85,-0.559 37.85,5.476 9.76,6.36 16.37,16.692 17.75,28.535 2.73,23.379 -11.83,40.098 -37.28,43.067 l -9.78,1.133 1.57,13.332 3.53,-0.422 c 28.13,-3.281 43.51,7.522 46.41,32.392 2.63,22.5 -9.03,35.86 -33.29,38.69 -7.1,0.82 -16.93,1.39 -22.96,1.18 l -17.41,-33.37 -10.37,1.21 4.81,41.15 c 22.57,3.06 43.71,4.2 56.72,2.67 36.72,-4.28 57.28,-23.5 54.17,-50.13 -2.8,-23.99 -22.32,-39.405 -52.67,-42.464 32.06,-5.547 50.71,-25.723 47.63,-52.07 -3.89,-33.145 -35.98,-51.004 -81.85,-45.645 -12.74,1.484 -20.1,2.637 -43.17,8.047 l -4.71,0.84"
                    style="fill:#104f8c;fill-opacity:1;fill-rule:nonzero;stroke:none"
                    id="path46" />
            <path
                    d="m 2878.15,949.473 4.85,8.007 14.52,23.731 15.65,27.429 18.24,31.61 2.75,5.08 9.46,-88.892 z m 72.19,-56.453 25.19,2.664 -4.71,44.16 27.88,2.949 -2.04,19.27 -27.87,-2.954 -13.45,126.851 -11.86,-1.27 -90.09,-147.725 1.02,-9.485 91.26,9.688 4.67,-44.148"
                    style="fill:#104f8c;fill-opacity:1;fill-rule:nonzero;stroke:none"
                    id="path48" />
            <path
                    d="m 3089.07,919.934 -13.79,40.32 10.13,3.476 20.1,-24.628 c 6.21,1.191 10.9,2.168 19.65,5.156 17.19,5.898 25.35,11.523 31.78,21.269 6.03,9.953 7.54,22.129 3.69,33.399 -7.64,22.284 -27.97,31.074 -52.23,22.774 l -9.29,-3.18 -4.36,12.68 3.4,1.16 c 26.78,9.16 35.98,25.55 27.87,49.23 -7.32,21.43 -23.61,28.46 -46.72,20.55 -6.78,-2.32 -15.9,-6.08 -21.23,-8.85 l -1.29,-37.61 -9.86,-3.38 -13.44,39.18 c 19.02,12.5 37.62,22.64 50.02,26.9 34.96,11.96 61.8,3.52 70.49,-21.86 7.81,-22.85 -3.13,-45.17 -29.2,-61.03 31.31,8.83 56.84,-1.33 65.45,-26.43 10.8,-31.58 -10.43,-61.533 -54.14,-76.494 -12.13,-4.148 -19.28,-6.265 -42.42,-11.367 l -4.61,-1.265"
                    style="fill:#104f8c;fill-opacity:1;fill-rule:nonzero;stroke:none"
                    id="path50" />
            <path
                    d="m 2208.95,1165.8 c -17.48,14.96 -19.36,42.01 -3.99,59.96 15.36,17.93 42.37,20.25 59.85,5.29 17.71,-15.16 19.58,-42.2 4.22,-60.16 -15.35,-17.94 -42.37,-20.25 -60.08,-5.09"
                    style="fill:#104f8c;fill-opacity:1;fill-rule:nonzero;stroke:none"
                    id="path52" />
            <path
                    d="m 2160.02,1436.23 -6.5,-4.09 -22.81,16.07 -142,-89.4 4.65,-27.52 -6.49,-4.09 -43.14,68.54 6.48,4.08 22.98,-16.35 141.99,89.41 -4.81,27.77 6.49,4.1 43.16,-68.52"
                    style="fill:#104f8c;fill-opacity:1;fill-rule:nonzero;stroke:none"
                    id="path54" />
            <path
                    d="m 2099.67,1525.96 -7.15,-2.76 -19.25,20.22 -156.66,-60.1 -0.81,-27.9 -7.15,-2.75 -18.13,47.26 98.05,157.21 -120.85,-46.38 -0.8,-27.9 -7.16,-2.75 -24.61,64.17 7.15,2.74 19.36,-20.5 176.72,67.79 3.3,-8.59 -113.65,-179.94 139.19,53.39 0.69,28.19 7.15,2.75 24.61,-64.15"
                    style="fill:#104f8c;fill-opacity:1;fill-rule:nonzero;stroke:none"
                    id="path56" />
            <path
                    d="m 2000.23,1842.73 -45.06,-1.54 -0.38,11.04 37.5,16.32 c 0.96,8.01 1.05,14.15 0.76,22.74 -0.96,28.5 -12.82,43.14 -34.28,42.42 -15.02,-0.52 -21.9,-5.98 -34.98,-27.6 l -18.29,-30.69 c -9.56,-16.59 -14.29,-21.98 -23.28,-28.12 -7.81,-5.17 -15.71,-7.59 -25.83,-7.94 -32.19,-1.09 -54.75,21.77 -55.96,57.04 -0.17,5.2 0.43,14.44 1.06,23.05 0.69,6.77 1.42,12.33 2.22,16.03 l 2.32,12.98 0.77,4.31 43.54,1.5 0.39,-11.35 -36.3,-15.66 -0.23,-2.46 c -0.35,-8 -0.57,-10.15 -0.39,-15.68 1.05,-30.65 11.04,-44.73 31.27,-44.04 14.12,0.48 20.08,5.28 32.85,26.89 l 19.44,33.2 c 11.9,20.04 13.65,22.56 22.04,28.68 8.39,6.11 19.01,9.55 30.66,9.94 34.03,1.16 56.66,-23.54 58.02,-63.41 0.32,-9.49 -1.04,-23.66 -3.65,-36.94 l -3.41,-17.31 -0.8,-3.4"
                    style="fill:#104f8c;fill-opacity:1;fill-rule:nonzero;stroke:none"
                    id="path58" />
            <path
                    d="m 1808.45,2030.06 -7.53,1.42 14.9,79.28 7.54,-1.4 5.78,-27.31 120.59,-22.67 c 36.18,-6.8 55.11,5.86 61.69,40.83 6.92,36.77 -5.71,56 -40.68,62.58 l -122.09,22.95 -15.31,-23.33 -7.54,1.41 13.27,70.56 7.53,-1.42 5.74,-27.61 115.46,-21.72 c 30.74,-5.77 46.45,-16.83 55.08,-39.05 5.89,-15.17 6.6,-29.66 2.34,-52.27 -9.58,-50.95 -34.14,-70.36 -78.46,-62.04 l -122.99,23.14 -15.32,-23.35"
                    style="fill:#104f8c;fill-opacity:1;fill-rule:nonzero;stroke:none"
                    id="path60" />
            <path
                    d="m 1895.14,2342.25 8.51,19.38 c 7.02,16.01 13.85,22.39 26.03,25.76 10.46,2.45 21.8,0.82 33.32,-4.24 11.8,-5.17 20.39,-12.29 25.39,-21.52 6.66,-12.3 6.2,-24.82 -2.18,-43.92 l -5.68,-12.92 z m 188.95,-48.06 -7.04,3.08 -22.64,-24.89 -62.92,27.59 8.62,19.66 c 18.25,41.59 8.36,77.09 -25.62,92 -16.02,7.02 -31,7.24 -45.35,0.47 -15.18,-7.08 -25.27,-19.4 -36.12,-44.13 l -31.18,-71.08 7.02,-3.07 20.19,19.28 153.66,-67.42 -0.53,-27.91 7.02,-3.08 34.89,79.5"
                    style="fill:#104f8c;fill-opacity:1;fill-rule:nonzero;stroke:none"
                    id="path62" />
            <path
                    d="m 1996.98,2530.39 12.59,17.38 c 13.86,19.12 33.46,21.6 53.82,6.83 20.63,-14.94 25.77,-37.62 12.45,-55.99 l -12.05,-16.65 z m 83.22,-46.69 118.41,-2.85 28.8,39.74 -6.21,4.5 -22.98,-12.89 -104.49,-0.42 c 13.85,27.47 8.69,54.33 -13.67,70.52 -12.66,9.18 -26.94,11.96 -40.81,7.99 -13.86,-3.97 -21.43,-10.23 -35.65,-29.85 l -48.78,-67.31 6.2,-4.5 23.82,14.56 135.86,-98.47 -6.44,-27.17 6.21,-4.5 47.53,65.58 -6.21,4.5 -23.99,-14.82 -64.09,46.45 6.49,8.94"
                    style="fill:#104f8c;fill-opacity:1;fill-rule:nonzero;stroke:none"
                    id="path64" />
            <path
                    d="m 2213.87,2637.59 55.45,-62.75 50.8,44.89 -8.35,37.24 7.59,6.7 27.83,-38.44 -109.87,-97.09 -5.08,5.74 12.2,25.1 -111.12,125.75 -26.41,-9.03 -5.08,5.76 108.96,96.27 30.46,-34.48 -7.58,-6.7 -33.15,15.74 -49.42,-43.66 54.65,-61.84 41.6,36.76 -10.47,27.59 6.89,6.09 44.49,-50.33 -6.9,-6.09 -25.89,13.55 -41.6,-36.77"
                    style="fill:#104f8c;fill-opacity:1;fill-rule:nonzero;stroke:none"
                    id="path66" />
            <path
                    d="m 2455.86,2747.61 -12.06,165.26 52.33,25.68 3.38,-6.9 -18.69,-21.11 73.9,-150.65 28.15,1.85 3.36,-6.9 -72.69,-35.66 -3.39,6.88 18.68,21.13 -66.6,135.77 12.87,-184.35 -5.51,-2.69 -136.79,123.54 66.6,-135.77 28.14,1.85 3.37,-6.89 -61.69,-30.26 -3.38,6.88 18.41,20.99 -73.9,150.64 -27.87,-1.7 -3.36,6.88 54.24,26.61 122.5,-111.08"
                    style="fill:#104f8c;fill-opacity:1;fill-rule:nonzero;stroke:none"
                    id="path68" />
            <path
                    d="m 2662.71,2872.77 29.6,92.23 11.75,-86.63 z m 52.74,-78.6 -21.31,-14.03 1.03,-7.61 136.78,18.53 -1.17,47.51 -10.94,-1.48 -14.04,-35.64 -61.11,-8.27 -10.83,79.94 49.25,6.67 14,-25.66 9.41,1.28 -9,66.57 -9.44,-1.28 -6.61,-28.76 -49.26,-6.65 -11.49,84.8 59.59,8.06 18.81,-31.49 10.64,1.44 -6.17,45.59 -120.37,-16.3 -71.72,-197.3 -21.32,-14.04 1.03,-7.59 66.58,9.01 -1.04,7.6 -24.32,8.16 24.49,75.14 48.94,6.62 9.59,-70.82"
                    style="fill:#104f8c;fill-opacity:1;fill-rule:nonzero;stroke:none"
                    id="path70" />
            <path
                    d="m 3059.81,2948.56 31.54,-9.02 c 27.13,-7.75 41.35,-19.46 49.47,-41.24 6.92,-18.25 6.84,-38.64 -0.23,-63.42 -8.28,-28.9 -21.54,-47.45 -42.27,-59.71 -18.75,-10.91 -33.75,-12.04 -59.12,-4.81 l -28,8.01 z m -21.74,-192.22 c 29.49,-8.43 51.15,-8.55 72.05,-0.17 28.81,11.54 50.29,37.63 60.49,73.31 7.93,27.74 6.5,51.75 -4.08,73.92 -11.76,24.73 -29.49,37.46 -67.85,48.41 l -87.89,25.1 -2.11,-7.37 21.83,-17.4 -46.09,-161.34 -27.72,-3.25 -2.11,-7.37 83.48,-23.84"
                    style="fill:#104f8c;fill-opacity:1;fill-rule:nonzero;stroke:none"
                    id="path72" />
            <path
                    d="m 3168.05,2710.04 3.58,6.79 27.79,-2.49 78.08,148.51 -17.81,21.5 3.58,6.78 71.68,-37.68 -3.56,-6.79 -28.09,2.63 -78.08,-148.52 18.07,-21.63 -3.56,-6.78 -71.68,37.68"
                    style="fill:#104f8c;fill-opacity:1;fill-rule:nonzero;stroke:none"
                    id="path74" />
            <path
                    d="m 3440.49,2604.56 -36.36,-44.76 -3.87,1.57 c -23.99,10.39 -40.67,20 -56.86,33.15 -26.42,21.48 -38.86,42.66 -40,68.49 -1.09,25.4 7.78,49.42 26.53,72.52 21.85,26.89 49.04,42.35 78.1,44.05 26.9,1.47 50.68,-7.2 77.81,-29.26 16.18,-13.15 25.45,-22.66 39.05,-40.44 l 2.54,-3.24 -28.83,-35.46 -9.05,7.36 13.07,37.98 c -4.49,5.64 -9.57,10.56 -17.67,17.14 -24.77,20.12 -43.81,27.31 -66.18,24.13 -23.69,-2.89 -44.14,-15.9 -63.3,-39.47 -35.02,-43.09 -32.56,-85.78 6.96,-117.91 8.55,-6.96 17.77,-13.64 23.53,-16.76 l 31.92,39.29 -13.4,24.35 4.82,5.94 62.83,-51.07 -4.82,-5.96 -26.82,8.36"
                    style="fill:#104f8c;fill-opacity:1;fill-rule:nonzero;stroke:none"
                    id="path76" />
            <path
                    d="m 3431.59,2523.41 6.21,4.5 23.81,-14.55 135.82,98.55 -6.45,27.16 6.21,4.5 29.73,-40.96 -54.1,-177.21 104.78,76.03 -6.42,27.16 6.17,4.5 40.37,-55.61 -6.21,-4.51 -24.01,14.8 -153.18,-111.17 -5.39,7.45 63.26,203.22 -120.66,-87.56 6.64,-27.41 -6.21,-4.51 -40.37,55.62"
                    style="fill:#104f8c;fill-opacity:1;fill-rule:nonzero;stroke:none"
                    id="path78" />
            <path
                    d="m 3558.73,2333.63 6.98,3.21 20.54,-18.91 152.37,70.3 -1.06,27.9 6.98,3.22 33.9,-73.54 -6.95,-3.22 -20.69,19.18 -152.34,-70.31 1.17,-28.16 -6.95,-3.21 -33.95,73.54"
                    style="fill:#104f8c;fill-opacity:1;fill-rule:nonzero;stroke:none"
                    id="path80" />
            <path
                    d="m 3639.09,2179.27 166.34,45.19 -12.13,44.7 -38.92,4.04 -2.89,10.66 48.53,13.19 44.55,-164 -48.53,-13.19 -2.81,10.37 31.52,23.19 -11.74,43.21 -166.37,-45.19 -1.91,-33.9 -7.4,-2 -24.45,89.98 7.4,2.01 18.81,-28.26"
                    style="fill:#104f8c;fill-opacity:1;fill-rule:nonzero;stroke:none"
                    id="path82" />
            <path
                    d="m 3825.82,1986.85 c -9.64,-3.26 -14.47,-5.03 -27.12,-9.95 l -49.13,-19.28 -2.67,54.84 z m -87.96,-34.41 -62.35,-25.17 -12.48,22.73 -7.65,-0.37 3.8,-77.81 7.66,0.37 10.2,23.83 183.59,76.25 -0.82,17.16 -190.67,67.75 -12.48,23.03 -7.67,-0.37 3.28,-67.1 7.68,0.37 10.19,23.84 64.57,-20.17 3.15,-64.34"
                    style="fill:#104f8c;fill-opacity:1;fill-rule:nonzero;stroke:none"
                    id="path84" />
            <path
                    d="m 3663.75,1799.36 170.12,-27.99 7.52,45.72 -33.73,19.84 1.8,10.9 49.63,-8.17 -27.6,-167.69 -49.63,8.17 1.74,10.59 38.32,8 7.26,44.2 -170.11,27.99 -15.82,-30.04 -7.56,1.24 15.13,92.03 7.58,-1.26 5.35,-33.53"
                    style="fill:#104f8c;fill-opacity:1;fill-rule:nonzero;stroke:none"
                    id="path86" />
            <path
                    d="m 3621.57,1688.54 7.24,-2.49 1.84,-27.85 158.79,-54.24 18.49,20.92 7.27,-2.47 -26.19,-76.64 -7.25,2.49 -1.74,28.14 -158.81,54.21 -18.57,-21.21 -7.25,2.49 26.18,76.65"
                    style="fill:#104f8c;fill-opacity:1;fill-rule:nonzero;stroke:none"
                    id="path88" />
            <path
                    d="m 3588.75,1572.12 39.81,-21.21 -5.2,-9.76 -40.64,4.65 c -4.84,-6.48 -7.99,-11.74 -12.05,-19.32 -13.4,-25.17 -10.47,-43.77 8.47,-53.88 13.29,-7.06 21.96,-5.78 44.09,6.4 l 31.21,17.44 c 16.56,9.58 23.36,11.87 34.22,12.68 9.35,0.57 17.38,-1.29 26.3,-6.05 28.44,-15.15 36.55,-46.25 19.95,-77.37 -2.45,-4.61 -7.6,-12.29 -12.46,-19.44 -3.99,-5.52 -7.39,-9.95 -9.95,-12.78 l -8.49,-10.06 -2.83,-3.35 -38.44,20.49 5.35,10.03 39.26,-4.62 1.44,2.03 c 4.28,6.75 5.57,8.49 8.15,13.37 14.43,27.07 12.85,44.27 -5.02,53.79 -12.46,6.64 -20.04,5.45 -41.9,-6.86 l -33.45,-19.02 c -20.32,-11.41 -23.11,-12.7 -33.42,-13.8 -10.33,-1.1 -21.25,1.24 -31.52,6.73 -30.04,16.02 -37.29,48.73 -18.52,83.92 4.47,8.39 12.73,19.98 21.64,30.17 l 11.6,13.29 2.4,2.53"
                    style="fill:#104f8c;fill-opacity:1;fill-rule:nonzero;stroke:none"
                    id="path90" />
            <path
                    d="m 3481.88,1192.3 c -16.86,-15.66 -43.95,-14.45 -60.02,2.86 -16.07,17.31 -15.29,44.4 1.54,60.05 17.09,15.88 44.18,14.68 60.26,-2.63 16.09,-17.31 15.29,-44.4 -1.78,-60.28"
                    style="fill:#104f8c;fill-opacity:1;fill-rule:nonzero;stroke:none"
                    id="path92" />
            <path
                    d="m 2776.9,1871.6 c 0,-0.8 0.3,-1.48 0.5,-2.22 -0.13,-0.79 -0.25,-1.58 -0.25,-2.31 0,-4.91 2.89,-8.41 5.52,-11.56 l 3.11,-4.06 c 3.88,-5.88 7.81,-8.38 14.15,-11.14 4.6,-2 8.66,-0.76 11.94,0.24 2.87,0.87 5.13,1.57 7.66,0.6 l 3.63,-2.48 6.14,-3.75 c 5.25,-1.62 9.09,0.49 12.52,2.34 l 6.62,2.56 7.26,0.49 9.69,0.82 2.5,0.35 c 7.67,1.14 14.92,2.21 17.5,5.98 0,0.01 0.81,3.91 0.81,3.91 l -4.99,5.22 -1.82,1.16 -8.1,3.56 -2.05,0.55 -4.45,2.08 -9.31,2.76 -8.43,-2.38 -5.63,-1.91 -10.8,0.63 -2.02,0.36 -5.76,2.65 -9.33,3.54 c -5.64,0.25 -9.22,-1.46 -13.34,-3.45 l -3.94,-1.86 -3.21,-1.02 c -4.9,-0.19 -5.85,0.35 -9.04,6.28 0.73,1.43 4.14,7.82 4.14,7.82 0.61,0.77 10.51,13.09 12.38,15.43 0.02,-0.02 0.21,-0.16 0.21,-0.16 0.05,0.02 0.07,0.16 0.11,0.19 l 0.04,-0.02 c 0.13,0.2 0.19,0.56 0.35,0.79 0.65,0.88 1.47,1.8 1.47,2.99 0,0.71 -0.23,1.41 -0.86,2.09 -2.02,2.18 -4.68,0.33 -5.53,-0.3 -2.79,-1.96 -19.39,-16.44 -19.39,-26.77"
                    style="fill:#104f8c;fill-opacity:1;fill-rule:nonzero;stroke:none"
                    id="path94" />
            <path
                    d="m 2757.46,1946.6 6.36,0.69 -0.73,-0.81 c -2.78,-2.55 -4.99,-4.55 -4.12,-7.26 0.29,-0.88 1.17,-2.41 3.87,-2.74 4.05,-0.44 6.23,2.2 7.8,4.13 l 1.88,2.03 4.82,3.28 6.89,5.13 7.09,9.95 c 2.39,5.66 2.34,9.64 2.29,15.14 0,0.01 -2.63,13.18 -2.63,13.18 l -0.52,1.54 -1.05,3.45 -4.14,10.14 c -2.91,5.02 -10.25,16.38 -15.23,13.62 -2.91,-1.67 -2.93,-4.39 -2.93,-5.71 l -0.06,-0.93 c -0.02,0 -2.67,-1.12 -2.67,-1.12 -4.45,-1.08 -8.41,1.19 -13.43,4.08 -4.17,2.39 -8.9,5.1 -14.63,6.03 -11.25,1.78 -18.1,1.73 -29.29,-0.29 -9.87,-1.76 -15.95,-4.72 -24.1,-11.77 -4.85,-4.15 -8.64,-7.45 -11.45,-14.48 l -4.85,-15.99 0.08,0.27 c -0.2,-2.31 0.75,-3.61 1.59,-4.29 0.76,-0.62 1.63,-0.83 2.48,-0.94 1.11,-3.01 5.36,-5.99 16.05,-12.72 5.28,-3.32 22.24,-6.39 31.44,-6.34 0.09,0 0.17,-0.05 0.24,-0.05 l 2.39,-0.01 c 0,0 0,0.43 0,0.49 0.29,0.04 0.57,0.09 0.81,0.13 0.07,0 0.3,0.02 0.4,0.02 0.58,-0.02 1.11,-0.16 1.68,-0.16 2.37,0 4.62,0.34 6.82,0.87 6.07,0.48 12.86,1.05 12.86,1.05 l 12.29,2.72 c 5.08,1.51 9.14,2.68 15.04,1.6 -0.75,-2.56 -1.68,-5.26 -2.92,-8.28 0,0.02 0,0.07 0,0.11 -0.27,2.54 -2.68,4.37 -5.21,4.1 l -6.03,-0.65 -11.59,-1.75 -16.66,-4.06 c -2.47,-0.61 -3.99,-3.11 -3.41,-5.61 0.64,-2.46 3.12,-3.98 5.62,-3.37 l 16.67,4.06 z m -65.71,21.45 c -3.04,1.92 -9.25,5.88 -11.53,7.91 0.25,1.79 0.66,3.36 1.1,4.93 0.28,0.56 0.59,1.06 0.86,1.63 l 5.42,8.57 c 2.9,3.02 5.16,5.36 7.56,7.32 0.46,0.29 1.11,0.57 1.63,0.86 -2.04,-4.17 -3.28,-8.82 -3.28,-13.81 0,-7.84 2.9,-14.93 7.59,-20.41 -3.84,0.72 -7.31,1.7 -9.35,3 z m 40.4,17.87 c -2.11,0 -3.86,1.83 -3.86,4.1 0,2.27 1.75,4.09 3.86,4.09 2.14,0 3.87,-1.82 3.87,-4.09 0,-2.27 -1.73,-4.1 -3.87,-4.1 z m 20.98,-18.11 -5.39,-1.23 c 3.92,5.27 6.33,11.76 6.33,18.88 0,4.85 -1.18,9.4 -3.1,13.5 2.37,-0.93 4.57,-1.9 6.49,-2.91 1.65,-1.35 3.29,-2.86 4.88,-4.68 5.91,-6.75 8.6,-13.08 10.16,-20.69 0,-0.62 -0.15,-1.17 -0.17,-1.74 -7.76,1.29 -13.86,0.45 -19.2,-1.13"
                    style="fill:#104f8c;fill-opacity:1;fill-rule:nonzero;stroke:none"
                    id="path96" />
            <path
                    d="m 2681.79,2051.24 c 14.65,3.27 23.21,3.78 38.05,2.33 l 7.34,-0.5 12.71,-1.63 14.86,-5.12 8.88,-3.46 c 2.39,-0.92 4.97,0.32 5.89,2.7 0.93,2.37 -0.36,5.08 -2.75,6.02 l -8.55,3.31 -16.06,5.51 -14.51,1.91 -6.91,0.47 c -15.8,1.56 -25.38,0.96 -40.97,-2.51 -2.49,-0.56 -4.05,-3.04 -3.48,-5.52 0.55,-2.49 3.01,-4.07 5.5,-3.51"
                    style="fill:#104f8c;fill-opacity:1;fill-rule:nonzero;stroke:none"
                    id="path98" />
            <path
                    d="m 2861.68,1740.06 c -0.04,-0.02 -0.08,-0.07 -0.11,-0.1 -4.14,-3.37 -6.32,-5.05 -10.82,-6.35 l -2.66,-0.78 c -5.55,-1.67 -7.06,-2.09 -17.52,-0.45 l -7.72,1.8 -12.25,2.12 -3.16,0.12 c -6.17,0.28 -8.04,0.35 -8.91,-2.16 l -0.65,-1.94 1.71,-1.58 4.26,-3.85 c 6.45,-6.01 13.1,-12.22 28.95,-12.08 l 5.93,0.57 7.01,0.18 9.04,-3.97 8.78,-4.99 -1.65,7.1 -2.68,12.19 c -0.02,0.2 -0.02,0.4 -0.02,0.61 0,3.42 2.13,5.63 6.14,8.6 v 0 c 0.04,0.05 0.08,0.08 0.11,0.1 l -3.78,4.86"
                    style="fill:#104f8c;fill-opacity:1;fill-rule:nonzero;stroke:none"
                    id="path100" />
            <path
                    d="m 2907.05,1775.61 v 0 l -1.23,2.4 c -2.18,4.94 -3.1,7.97 -1.09,10.81 l -4.16,4.4 c -0.3,-0.2 -0.52,-0.62 -0.82,-0.84 h -0.05 c -0.02,0 0,-0.04 -0.02,-0.07 -2.61,-1.98 -4.96,-5.08 -4.96,-10.64 0,-1.67 0.28,-3.63 0.74,-5.73 -2.2,-0.18 -4.3,-0.01 -6.96,0.74 l -11.05,5.34 -9.73,9.36 -3.88,4.21 c -3.09,2.98 -6.41,3.06 -9.34,3.11 l -3.07,0.2 c -0.38,0.05 -5.09,-0.15 -8.93,-0.96 -0.97,-0.1 -1.95,-0.19 -1.95,-0.19 0.24,0.02 0.36,-0.26 0.62,-0.31 -0.18,-0.04 -0.31,-0.1 -0.45,-0.15 0.02,0.03 0.12,0.27 0.12,0.27 l -7.26,-1.97 c -0.01,0 -2.02,0.3 -2.02,0.3 l -2.77,0.64 -3.12,0.56 -6.85,0.62 -11.36,-3.9 -7.42,-6.13 -3.42,-3.37 -3.34,-3.18 -7.97,-5.52 c -4.6,-1.49 -7.38,-1.29 -12.66,-0.5 l -6.81,1.87 c 1.99,4.95 0.63,9.21 -0.78,13.29 l -0.98,2.91 -6.02,-1.27 c 0.3,-2.41 0.52,-4.53 0.52,-6.39 0,-2.41 -0.65,-4.32 -1.77,-6.05 v 0 l -1.75,-2.18 c -3.57,-3.12 -6.78,-4.73 -9.95,-4.73 -1.49,0.24 -3.02,0.32 -4.41,0.91 h -0.01 l -2.44,-5.65 c 2.29,-1 4.57,-1.47 6.86,-1.47 5.79,-0.75 11.18,0.62 15.3,3.78 2.8,-3.2 5.8,-5.54 10.6,-7.53 7.5,-3.15 12.97,-2.7 19.88,-2.14 l 3.18,0.24 10.42,1.51 12.77,1.29 6.42,-1.64 9.35,-1.96 8.53,2.81 c 2.56,1.38 4.08,2.15 6.29,1.78 0,0 4.95,-1.38 7.95,-2.22 0.86,-0.28 1.74,-0.54 1.74,-0.54 0.75,-0.21 1.64,-0.27 2.56,-0.05 2.16,-0.31 11.95,-1.78 11.95,-1.78 10.72,-1.39 19.81,0.54 26.31,5.59 l 1.58,1.83 c 2.45,-2.31 5.67,-4.02 9.44,-4.58 5.94,-0.88 11.41,1.19 14.3,5.39 l 3.41,4.94 -9.53,-0.19 c -5.97,-0.19 -8.9,0.1 -10.51,2.73"
                    style="fill:#104f8c;fill-opacity:1;fill-rule:nonzero;stroke:none"
                    id="path102" />
            <path
                    d="m 2549.01,2132.16 c -0.65,-0.04 0.65,-0.06 0,0 v 0"
                    style="fill:#104f8c;fill-opacity:1;fill-rule:nonzero;stroke:none"
                    id="path104" />
            <path
                    d="m 2978.71,2012.16 c -8.94,2.82 -14.14,4.03 -23.16,4.21 -13.48,0.25 -21.89,0.43 -34.57,-4.26 -8.01,-2.98 -13.81,-5.45 -20.93,-12.48 l -3.7,-3.48 c -4.86,-4.45 -9.48,-8.66 -10.92,-16.87 -1.13,-6.44 -1.13,-10.39 0.05,-16.28 l 1.41,-7.07 8.31,11.88 c -0.24,-2.09 -0.46,-4.17 -0.53,-6.56 l -0.22,-6.45 6.16,1.88 c 8.1,2.41 11.33,1.39 16.23,-0.18 l 8.52,-2.2 11.42,-2.66 19.67,-3.18 c 0.02,0 5.04,-0.08 5.04,-0.08 8.03,-0.14 15,-0.25 24.08,3.8 l 19.39,11.2 -0.27,2.5 c 0,0.12 -0.04,0.23 -0.04,0.33 l 2.56,1.97 c 4.47,3.48 -0.84,19.69 -5.21,26.47 -7.89,12.23 -12.84,14.2 -23.29,17.51 z m -51.83,-48.74 -7.21,1.88 c -4.16,1.34 -8.67,2.16 -14.94,1.36 0.86,6.77 2.54,12.32 6.72,18.93 0.84,1.34 1.78,2.33 2.66,3.43 l 4.66,3.85 c 2.52,2.15 4.65,3.65 6.88,4.9 -2.76,-4.68 -4.44,-10.1 -4.44,-15.97 0,-6.94 2.31,-13.28 6.02,-18.46 z m 34.04,17.82 c -2.15,0 -3.87,1.83 -3.87,4.1 0,2.27 1.72,4.1 3.87,4.1 2.13,0 3.87,-1.83 3.87,-4.1 0,-2.27 -1.74,-4.1 -3.87,-4.1 z m 20.86,-20.61 c -4.1,-1.84 -7.56,-2.54 -11.19,-2.83 6.78,5.72 11.21,14.29 11.21,24 0,3.94 -0.8,7.68 -2.11,11.19 2.5,-1.72 5,-3.73 7.77,-6.33 3.91,-3.68 5.86,-9.71 7.09,-14.28 0.22,-1.33 0.41,-2.65 0.49,-4.08 -3.47,-2.01 -13.26,-7.67 -13.26,-7.67"
                    style="fill:#104f8c;fill-opacity:1;fill-rule:nonzero;stroke:none"
                    id="path106" />
            <path
                    d="m 2945.12,1944.63 -7.36,2.89 -14.98,4.53 c -0.02,0 -19.61,-0.57 -19.61,-0.57 l -4.94,-0.68 c -2.53,-0.34 -4.35,-2.67 -4,-5.2 0.36,-2.53 2.6,-4.32 5.15,-3.99 l 5.08,0.69 17.09,0.57 12.58,-3.87 8.04,-3.13 c 2.38,-0.93 4.85,0.32 5.8,2.7 0.92,2.39 -0.47,5.14 -2.85,6.06"
                    style="fill:#104f8c;fill-opacity:1;fill-rule:nonzero;stroke:none"
                    id="path108" />
            <path
                    d="m 3315.49,2420.66 c -0.56,0.18 -1.15,0.3 -1.76,0.38 l -8.14,1.06 c -7.89,1.64 -15.86,2.18 -23.77,1.9 -14.65,-0.52 -29.1,-4.18 -42.71,-10.57 0.35,1.23 0.87,2.42 1.13,3.67 3.57,17.29 -0.59,35.59 -11.51,54.14 -19.92,33.87 -62.83,68.6 -124.62,100.04 10.84,8.39 17.77,21.68 17.77,36.38 0,1.04 -0.02,2.1 -0.08,3.14 -0.86,12.12 -6.48,22.7 -14.76,30.38 -1.22,1.64 -2.64,3.14 -4.61,4.05 -0.3,0.12 -0.71,0.21 -1,0.36 0.06,-0.02 0.16,-0.01 0.21,-0.04 0,0 -1.4,0.54 -1.69,0.64 -4.63,2.87 -9.63,4.81 -15.16,5.77 -0.12,0.06 -1.11,0.42 -1.11,0.42 0.11,-0.04 0.17,-0.15 0.27,-0.2 -0.66,0.12 -1.25,0.42 -1.93,0.5 -65.55,22.29 -166.06,24.7 -276.59,6.59 -100.06,13.59 -185.39,9.3 -244.71,-11.44 -0.4,-0.06 -0.76,-0.24 -1.15,-0.3 0.09,0.05 0.14,0.17 0.24,0.2 0,0 -0.97,-0.35 -1.1,-0.42 -5.5,-0.97 -10.54,-2.91 -15.17,-5.77 -0.28,-0.12 -1.69,-0.65 -1.69,-0.65 0.08,0.03 0.15,0.01 0.22,0.04 -0.3,-0.13 -0.68,-0.23 -0.98,-0.36 -1.95,-0.91 -3.36,-2.39 -4.55,-4.01 -8.29,-7.67 -13.97,-18.26 -14.8,-30.41 -0.08,-1.42 -0.14,-2.82 -0.14,-4.22 0,-12.07 3.62,-22.48 9.96,-30.13 -72.89,-38.66 -120.17,-83.34 -128.24,-125.19 -1.61,-8.43 -1.73,-16.73 -0.05,-24.86 0.31,-1.54 0.96,-2.96 1.38,-4.45 -9.12,2.59 -18.48,4.02 -27.93,4.14 -7.34,0.1 -14.73,-0.56 -22.08,-2.07 0.9,0.15 -7.24,-0.92 -7.24,-0.92 -0.6,-0.07 -1.19,-0.19 -1.76,-0.35 -52.43,-14.83 -98.03,-58.94 -132.82,-122.58 -1.23,-1.29 -2.06,-2.89 -2.5,-4.78 -48.89,-92.17 -75.58,-223.62 -68.33,-366.27 5.9,-116.45 33.85,-224.95 80.82,-313.74 9.52,-17.82 16.55,-30.7 27.45,-46.79 -0.16,0.21 50.13,-77.77 50.13,-77.77 15.43,-22.87 45.36,-56.95 62.91,-71.7 -0.2,0.2 -1.46,1.53 -1.66,1.72 l 11.7,-11.27 7.29,-5.94 c 0.46,-0.39 1.5,-1.19 2,-1.51 l 16.69,-9.98 c 17.07,-8.83 28.16,-12.65 46.93,-11.49 2.83,0 5.63,0.23 8.42,0.65 20.29,2.98 39.22,16.59 50.24,37.08 0.2,0.38 1.15,2.32 1.15,2.32 1.46,2.97 2.61,5.32 3.57,7.43 23.12,-21.63 48.42,-42.64 75.6,-62.7 -4.26,-7.01 -6.91,-15.07 -6.91,-23.68 0,-6.53 1.38,-12.81 3.84,-18.56 -5.16,0.05 -10.31,0.11 -15.16,0.37 -0.01,0 -0.02,0 -0.02,0 -4.89,0 -9.56,-0.63 -14.09,-1.61 -27.29,-5.81 -47.41,-27.95 -47.41,-54.49 0,-15.99 6.52,-30.02 16.76,-40.29 7.39,-7.41 16.65,-12.95 27.1,-15.59 0.81,-0.48 1.33,-1.34 2.29,-1.64 8.92,-2.75 18.41,-4.84 28.14,-6.62 69.13,-12.62 157.57,-0.68 250.92,32.31 0.54,-0.3 0.95,-0.71 1.57,-0.92 104.64,-35.99 200.26,-44.24 269.74,-23.48 0.7,0.22 1.48,0.33 2.18,0.55 0.59,0.18 1.02,0.56 1.45,0.94 2.01,0.82 3.98,1.61 5.98,2.43 2.03,0.73 4.02,1.49 5.93,2.41 19.22,9.28 32.78,28.52 32.78,51.73 0,24.67 -17.44,45.44 -41.51,52.95 -6.11,1.9 -12.54,3.18 -19.33,3.18 -4.96,-0.25 -10.3,-0.35 -15.82,-0.38 2.46,5.74 3.84,12.02 3.84,18.54 0,6.67 -2.73,14.33 -5.82,20.82 26.59,19.72 51.37,40.46 74.14,61.81 0.65,-3.04 1.39,-5.99 2.17,-9.03 l 1.76,-6.94 c 0.23,-1 0.66,-2.15 1.13,-3.05 9.44,-17.57 25.69,-29.75 44.28,-34.14 4.45,-1.06 9.02,-1.71 13.71,-1.83 20.55,-3.17 31.95,1.64 46.93,9.35 0.67,0.38 17.35,10.36 17.35,10.36 0.51,0.33 1.54,1.12 1.99,1.52 l 7.87,6.4 11.53,11.3 c -0.24,-0.23 -1.82,-1.99 -2.06,-2.2 17.54,14.73 47.47,48.78 62.78,71.49 0.13,0.2 50.43,78.18 50.43,78.18 10.66,15.77 20.88,32.77 30.25,50.33 48.97,91.72 76.95,200.65 83.2,323.75 7.23,142.52 -19.39,273.85 -68.2,366.01 l -0.02,0.23 c -0.25,3.55 -1.97,6.3 -4.49,8.13 -34.55,61.83 -79.43,104.69 -130.94,119.24 z m -207.5,116.46 c 5.18,-0.37 10.08,-1.91 14.57,-4.54 0.61,-0.37 1.27,-0.43 1.9,-0.68 58.16,-34.73 92.4,-71.94 92.4,-102.17 0,-2.61 -0.25,-5.17 -0.78,-7.67 -2.03,-9.9 -8.42,-18.97 -18.52,-27.11 -14.92,-5.86 -29.51,-7.3 -43.34,-4 -0.82,0.19 -2.38,0.31 -3.22,0.34 l -12.77,0.37 -24.71,0.39 c -20.53,-2.23 -68.44,-10.61 -83.13,-39.34 0.14,0.2 0.12,0.36 0.28,0.55 -0.51,-0.65 -0.9,-1.37 -1.27,-2.12 -2.05,-2.95 -3.46,-5.8 -4.38,-8.57 -12.87,11.59 -29.18,19.54 -47.91,20.07 l -5.7,0.17 -10.62,-0.11 c -3.97,8.15 -7.72,19.62 -7.35,24.96 0.69,10.02 4.24,18.24 10.04,23.13 4.84,4.11 11.25,5.81 18.95,5.06 4.04,-0.49 11.46,-4.33 15.45,-6.41 l 3.22,-1.64 c 4.61,-2.37 10.15,-1.52 13.96,2.06 3.79,3.57 4.81,9.2 2.74,13.99 -2.87,6.55 -5.49,14.76 -5.43,17.24 0.6,9.02 4.61,17.2 11.29,23.02 6.29,5.46 14.23,8.14 22.38,7.56 5.19,-0.39 10.27,-2.1 14.65,-4.99 4.86,-3.18 11.31,-2.56 15.43,1.53 4.16,4.09 4.86,10.52 1.76,15.42 -4.89,7.65 -7.29,12.83 -6.8,19.98 0.68,9.91 5.08,18.87 12.4,25.23 6.88,5.98 15.59,8.91 24.51,8.28 z m -37.26,-566.71 c -0.26,0.56 -13.27,19.22 -13.27,19.22 -6.85,8.14 -12.24,14.53 -12.24,31.23 0,3.91 0.55,8.9 1.19,14.1 4.22,-0.35 8.36,-0.19 12.05,0.1 2.31,-10.98 7.91,-25.25 23.46,-34.24 1.13,-4.16 2.38,-8.82 2.38,-8.82 0.96,-3.39 1.88,-6.68 2.72,-9.96 0.25,-1.03 0.48,-2.06 0.74,-3.11 0.62,-2.63 1.13,-5.27 1.58,-7.93 0.16,-0.96 0.35,-1.95 0.49,-2.93 0.45,-3.5 0.74,-7.07 0.72,-10.8 -0.02,-0.36 -0.04,-0.72 -0.04,-1.06 -0.12,-3.94 -0.47,-8.02 -1.27,-12.4 -1.97,-10.43 -5.7,-19.75 -10.29,-26 -1.52,-2.1 -3.15,-3.83 -4.82,-5.17 -2.15,-1.72 -4.18,-2.66 -6.2,-2.91 -4.66,-0.56 -7.97,0.07 -9.76,1.87 -0.71,0.69 -0.94,1.95 -1.41,2.96 3.2,0.94 6.64,2.51 10.2,5.87 7.2,6.83 9.43,15.81 9.43,24.28 0,12.38 -4.78,23.73 -5.66,25.7 z m -30.14,-76.14 c 1.86,-1.86 4.28,-3.8 7.36,-5.44 -4.59,-35.56 -13.32,-78.82 -36.46,-117.19 -3.01,-5.02 -5.86,-9.39 -8.63,-13.46 -1.04,-1.02 -1.82,-2.14 -2.41,-3.42 -9.74,-13.61 -19.18,-23.04 -33.41,-35.78 -12.33,-10.98 -19.81,-16.6 -34.79,-26.19 l -19.18,-12.84 c -23.26,-15.97 -39.42,-26.85 -67.1,-27.7 l 8.6,1.52 11.64,2.42 c 2.52,0.53 4.67,3.05 4.16,5.55 -0.52,2.51 -2.39,4.2 -4.88,3.68 l -13.47,-2.76 -9.64,-1.84 -8.06,1.77 -15.63,2.83 c -2.51,0.46 -4.06,-1.28 -4.55,-3.78 -0.45,-2.5 2.04,-4.98 4.55,-5.47 l 12.95,-2.44 7.72,-1.61 c -0.3,0.01 -0.57,-0.01 -0.87,0 -14.72,0.47 -25.62,2.67 -35.32,6.1 -0.07,0.02 -0.14,0.06 -0.21,0.08 -9.6,3.44 -18.04,8.09 -27.82,13.45 l -26.39,13.62 -17.79,7.62 c -15,6.11 -24.93,10.15 -45.4,27.45 -21.02,17.75 -29.27,33.11 -42.05,58.68 -22.52,45.12 -28.9,75 -25.44,119.56 0.68,0.59 1.33,1.18 1.91,1.76 13.03,13.19 10.62,34.37 10.32,36.75 -0.59,4.27 -4.19,7.2 -8.13,8.92 -3.54,1.59 -8.12,0.49 -11.6,-1.49 -1.19,1.2 -1.72,3.4 -1.72,6.12 0,4.92 1.6,11.35 3.56,15.85 0.02,-0.13 9.59,13.34 9.59,13.34 10.52,12.49 22.45,26.66 16.24,68.61 -0.02,0 -1.38,3.76 -2.65,7.3 5.39,13.62 2.96,29.94 2.61,31.99 -0.66,3.92 -3.16,7.23 -6.71,9.01 -3.54,1.75 -7.76,1.68 -11.27,-0.13 -0.88,-0.46 -1.84,-0.62 -2.86,-0.87 v 0.01 c 1.02,0.4 2.14,0.85 2.14,0.85 4.7,1.65 12.09,4.36 18.13,11.5 l 0.66,-0.41 c 12.6,-6.5 32.44,-6.52 45.96,6.05 21.28,19.77 17.45,42.62 12.43,51.91 -0.82,1.54 -2.02,2.82 -3.38,3.86 1.31,-0.16 2.64,-0.35 3.88,-0.41 10.23,-0.55 28.16,0.6 44.77,11.49 9.22,-7.73 20.5,-12.54 30.55,-12.54 21.23,0 38.81,10.24 49.01,28.01 2.75,1.57 5.38,3.35 7.82,5.39 9.46,-21.53 28.8,-35.44 52.8,-35.44 13.51,0 30.96,7.41 41.04,19.89 10.8,-11.75 23.55,-17.39 34.86,-20 -0.33,-0.45 -0.84,-0.75 -1.11,-1.27 -5,-9.31 -8.87,-32.13 12.44,-51.94 13.5,-12.55 33.32,-12.52 45.94,-6.04 l 0.64,0.42 c 6.06,-7.13 13.46,-9.87 18.17,-11.51 0,0 1.11,-0.45 2.14,-0.84 v -0.02 c -1.03,0.27 -1.99,0.41 -2.89,0.86 -3.49,1.84 -7.71,1.88 -11.23,0.13 -3.53,-1.76 -6.07,-5.06 -6.72,-8.97 -0.8,-4.7 -3.67,-27.27 8.13,-41.06 l -1.19,-3.4 c -1.19,-8.02 -1.72,-15 -1.72,-21.17 0,-26.11 9.43,-37.32 17.95,-47.44 l 9.86,-13.89 c 1.78,-4.11 3.3,-10.38 3.3,-15.21 0,-2.75 -0.53,-4.98 -1.74,-6.19 -3.47,1.98 -8.06,3.06 -11.6,1.5 -3.94,-1.75 -7.54,-4.68 -8.1,-8.94 -0.32,-2.37 -2.76,-23.56 10.29,-36.75 z m -82.46,-384.65 c -9.51,-9.33 -18.52,-18.13 -29.32,-24.85 -60.47,-37.19 -137.43,-76.53 -254.2,-94.81 -5.43,1.62 -9.22,6.85 -9.22,12.88 0,6.15 4.08,11.63 9.7,13.04 0.09,0.03 0.28,0.08 0.53,0.16 0.92,0.15 1.76,0.44 2.63,0.8 2.67,0.8 6.04,1.82 6.04,1.82 60.99,21.28 144.44,53.52 198.5,87.07 17.17,10.68 32.49,23.99 47.33,36.87 l 2.34,1.97 c 4.24,-14.8 15.08,-26.62 29.11,-31.87 z m 17.26,-17.63 9.93,8.9 c 2.95,-17.49 14.51,-31.81 30.11,-38.49 l -33.55,-21.74 -11.23,-6.95 c -114.57,-71.12 -257.25,-108.85 -358.52,-114.48 -5.69,4.03 -9.15,10.61 -9.15,17.87 0,5.58 2.56,10.9 6.49,14.91 1.22,0.69 2.25,1.64 3.21,2.76 3.69,2.65 8.1,4.3 12.7,4.3 151.94,14.2 245.14,60.9 316.38,104.72 13.2,8.18 23.6,18.35 33.63,28.2 z m -261.37,-26.35 c 0,0 4.64,-2.72 10.38,-6.12 -15.24,-5.77 -31.01,-11.57 -47.72,-17.41 -0.02,0 -0.53,-0.14 -1.25,-0.37 -11.51,7.35 -22.85,14.94 -33.93,22.75 15.06,6.9 26.11,21.11 28.96,38.24 l 9.95,-8.89 c 10.04,-9.85 20.45,-20.04 33.61,-28.2 z m -19.79,48.88 c 14.05,5.27 24.85,17.07 29.11,31.88 l 2.34,-1.94 c 14.82,-12.89 30.16,-26.23 47.35,-36.89 10.08,-6.24 19.1,-11.48 28.22,-16.38 -14.67,-6.65 -30.54,-13.41 -47.61,-20.26 l -26.66,15.71 c -10.81,6.69 -19.81,15.49 -29.33,24.82 z m 175.55,12.18 c -11.48,-7.14 -25.15,-14.58 -40.45,-22.23 -14.98,7.35 -27.8,14.45 -43.28,24.05 -7.51,4.68 -14.8,10.07 -21.92,15.77 0.37,0.05 0.79,0.05 1.17,0.1 -0.17,0 -0.3,-0.09 -0.47,-0.09 0.96,0 1.89,0.13 2.81,0.37 33.06,1.55 59.53,29.33 59.53,63.62 0,6.03 -2.13,13.41 -4.85,20.4 4.81,-0.58 9.82,-1.05 15.37,-1.24 5.63,-0.16 10.83,0.03 15.8,0.46 -2.04,-6.05 -3.51,-12.36 -3.51,-18.03 0,-30.24 20.62,-55.5 48.14,-62.14 -9.15,-7.64 -18.51,-14.97 -28.34,-21.04 z m -276.14,399.91 c 3.53,-3.35 6.98,-4.93 10.19,-5.87 -0.47,-1.02 -0.72,-2.28 -1.42,-2.97 -1.8,-1.82 -5.09,-2.45 -9.76,-1.86 -2.44,0.29 -4.92,1.65 -7.57,4.19 -6.18,5.88 -11.33,17.06 -13.74,29.88 -0.93,4.96 -1.34,9.61 -1.34,14.02 0,12.01 2.98,22.48 6.27,34.11 l 2.4,8.78 c 10,8.68 14.17,19.5 16.18,28.34 0.06,0.26 0.17,0.57 0.23,0.84 0.55,-0.05 1.13,-0.06 1.67,-0.11 0.73,-0.06 1.46,-0.11 2.22,-0.16 0.88,-0.06 1.77,-0.06 2.67,-0.07 0.53,0 1.04,0 1.56,0 0.91,0 1.8,0.05 2.71,0.1 0.69,0.05 1.36,0.09 2.05,0.18 0.74,0.06 1.47,0.12 2.21,0.25 1.25,0.18 2.48,0.44 3.71,0.74 0.22,0.05 0.42,0.06 0.63,0.12 0.32,-3.43 0.86,-7.3 0.86,-10.13 0,-16.64 -5.39,-23.03 -12.24,-31.19 l -13.02,-18.66 c -1.04,-2.32 -5.9,-13.84 -5.9,-26.32 0,-8.48 2.23,-17.41 9.43,-24.21 z m 62.15,520.75 c -1.07,15.67 -8.08,29.87 -19.75,40.02 -11.17,9.7 -25.34,14.5 -39.94,13.57 0.24,1.92 1.06,3.43 1.06,5.53 0,1.12 -0.03,2.27 -0.11,3.45 -1.12,16.5 -8.52,31.49 -20.82,42.18 -1.69,1.48 -3.59,2.6 -5.41,3.86 -2,1.39 -4.01,2.71 -6.15,3.83 1.62,0.82 2.99,1.96 4.1,3.39 11.54,5.4 23.66,10.71 36.42,15.83 -0.21,-0.04 -0.34,-0.19 -0.55,-0.24 l 8.83,1.9 c 4.95,0.37 9.77,-0.52 14.26,-2.36 3.35,-1.33 6.54,-3.12 9.36,-5.59 7.04,-6.11 11.27,-14.74 11.92,-24.29 0.58,-8.5 -1.84,-16.88 -6.79,-23.62 -3,-4.1 -2.58,-9.5 0.17,-13.78 2.74,-4.3 8.47,-6.31 13.47,-5.28 l 12.57,2.57 c 4.5,0.26 9.34,-1.25 13.21,-4.62 4.81,-4.17 7.74,-10.89 8.31,-18.91 0.18,-2.95 -2.53,-7.23 -5.19,-11.38 l -2.18,-3.51 c -2.71,-4.36 -1.64,-9.57 1.48,-13.66 3.13,-4.08 9.28,-5.42 14.2,-3.93 l 9.57,2.89 c 5.29,0.39 10.49,-1.37 14.58,-4.94 4.4,-3.82 7.08,-9.25 7.47,-15.23 0.31,-4.79 -0.86,-9.38 -3.28,-13.31 -4.29,-2.48 -8.48,-4.99 -12.33,-7.54 -2.59,6.31 -6.51,12.13 -11.66,16.98 -11.14,10.48 -27.16,15.54 -43.95,13.88 -1.07,-0.14 -2.09,-0.68 -3.16,-0.89 0.04,0.56 0.34,1.2 0.34,1.72 0,0.51 -0.02,1.01 -0.05,1.48 z m 105.38,98.56 c 44.34,10.89 84.19,18.02 118.7,21.14 56.54,5.11 111.42,4.94 160.13,-0.43 0.53,-0.27 0.98,-0.73 1.59,-0.95 6.23,-2.22 10.6,-8.14 11.05,-15.08 0.65,-9.53 -6.13,-17.78 -15.14,-18.41 -0.02,0 -3.14,0.08 -3.14,0.08 -0.31,0.03 -25.86,2.71 -25.86,2.71 -39.37,1.04 -75.57,-0.6 -108.54,-4.77 -42.13,-5.35 -83.6,-13.66 -121.68,-24.05 0.04,0.81 0.14,1.61 0.14,2.43 0,15.72 -6.54,28.85 -17.25,37.33 z m 260.96,-37.17 c 5,-0.52 9.34,-0.98 9.34,-0.98 -0.31,0.04 7.83,-0.21 7.83,-0.21 2.68,0.19 5.27,0.68 7.77,1.38 -0.15,-1.23 -0.52,-2.42 -0.6,-3.67 -0.08,-1.17 -0.12,-2.31 -0.12,-3.44 0,-2.11 0.8,-3.61 1.06,-5.54 -8.19,0.53 -16.16,-0.94 -23.64,-3.87 0.26,2.24 0.32,4.54 0.14,6.93 -0.2,3.33 -0.88,6.46 -1.78,9.4 z m -34.12,-69.22 c -0.97,0.22 -1.95,0.72 -2.93,0.85 -14.63,1.44 -27.54,-2.28 -37.58,-10.75 -6.87,-5.85 -11.83,-13.86 -15.02,-23.06 -4.51,3.04 -9.35,6.03 -14.47,8.99 -3.14,4.24 -4.74,9.39 -4.37,14.81 0.41,6.01 3.04,11.43 7.48,15.26 4.1,3.57 9.27,5.31 14.59,4.93 l 9.53,-2.88 c 4.94,-1.5 11.07,-0.14 14.2,3.93 1.89,2.49 2.91,5.4 2.91,8.28 6.56,0.34 13.14,0.68 19.69,0.75 0.6,0.02 9.27,0.56 9.27,0.56 0.35,0.01 0.69,0.09 1.02,0.14 -2.44,-5.86 -4.16,-12.07 -4.59,-18.64 -0.04,-0.49 -0.06,-0.98 -0.06,-1.5 0,-0.5 0.29,-1.14 0.33,-1.67 z m 9.75,-299.63 c 9.63,5.44 13.44,15 13.44,24.24 0,2.99 -0.61,5.83 -1.37,8.59 4.41,2.33 8.34,5.09 11.91,8.13 1,-2.72 1.88,-5.85 2.48,-9.43 0.08,-0.36 0.08,-0.78 0.14,-1.14 0.23,-1.52 0.45,-3.07 0.59,-4.74 0.17,-2.09 0.25,-4.31 0.25,-6.65 l -1.41,-10.1 c 0,0.08 -0.06,-0.15 -0.08,-0.26 -1.73,-5.58 -5.13,-10.12 -10.66,-14.28 l -9.08,-5.57 c -3.46,-1.8 -12.25,-3.01 -17.81,2.18 -2.84,2.63 -4.32,5.06 -5.63,7.43 5.59,-1.39 11.56,-1.6 17.23,1.6 z m -16.35,24.37 c 1.02,0.23 2.81,0.63 4.88,1.06 0.08,-0.52 0.18,-1.01 0.18,-1.56 0,-0.67 -0.31,-1.06 -0.53,-1.5 -1.17,0.29 -2.81,1.01 -4.53,2 z m 27.25,117.62 -1.2,0.42 c -3.59,1.28 -7.57,3.83 -10.8,1.76 -3.22,-2.04 -5.29,-2.5 -5.64,-6.28 l -1.13,-12.65 c 0.52,-2.94 0.8,-5.23 0.8,-7.04 0,-4.74 -2.03,-6.1 -6.62,-7.27 -4.93,4.52 -7.87,29.69 -9.28,42.01 l -1.6,13.21 c -0.31,2.39 -0.86,4.9 -1.53,7.46 -0.03,0.12 -0.07,0.27 -0.09,0.42 -2.05,7.74 -5.53,16.01 -10.16,24.16 3.95,0.03 9.16,0.06 9.16,0.06 l 5.84,-0.17 c 24.38,-0.71 44.65,-22.54 51.82,-44.42 l 2.05,-8.39 c 0.02,-0.13 0.13,-0.24 0.15,-0.37 l 0.78,-5.22 c 0,-0.01 0.28,-10.17 0.38,-13.4 -5.51,6.96 -13.07,12.25 -22.93,15.71 z m -38.42,-51.78 c 5.68,-3.93 12.42,-5.09 19.53,-3.33 9.75,2.41 19.92,8.47 23.65,21.54 2.21,-3.84 3.99,-8.7 3.99,-16.45 0,-4.81 -0.61,-10.53 -1.98,-17.36 l -2.69,-6.74 c 0,0 -0.04,-0.09 -0.08,-0.17 -5.23,-9.36 -15.55,-14.1 -21.23,-16.12 l -12.36,-2.79 c -16.7,-0.9 -38.87,4.34 -49.46,34.41 0.04,-0.12 0.41,-1.54 0.47,-1.71 -0.08,0.23 -1.05,3.25 -1.93,5.91 l -0.45,1.45 c -0.02,0.16 -0.02,0.32 -0.04,0.46 l -3.42,18.46 c -0.35,3.44 -0.82,6.74 -1.36,9.88 -3.99,22.82 -12.82,37.75 -27.99,47.7 0.15,-0.14 -5.62,3.07 -8.62,4.74 -0.25,0.15 -0.39,0.37 -0.66,0.5 l -3.46,1.7 c -9.96,4.82 -15.44,7.47 -17.9,18.23 -0.46,2.07 -0.82,4.1 -1.08,6.08 -0.09,0.77 -0.11,1.49 -0.17,2.26 -0.09,1.16 -0.2,2.33 -0.21,3.44 0,0.34 0.06,0.66 0.06,1.01 0.04,2.67 0.37,5.12 0.92,7.31 0.86,1.48 4.02,6.89 5,8.54 0.71,0.53 1.53,1.12 1.53,1.12 25.05,14.28 47.26,-5.17 58.28,-18.05 12.19,-14.24 18.9,-30.03 20.15,-39.36 l 1.55,-12.74 c 2.97,-25.75 5.76,-50.06 19.96,-59.92 z m -322.55,-80.79 c 2.08,-3.15 4.36,-6.25 8.17,-8.38 5.66,-3.21 11.64,-2.98 17.2,-1.62 -1.32,-2.36 -2.78,-4.8 -5.6,-7.41 -5.57,-5.18 -14.36,-4 -17.83,-2.19 0,0 -1.24,0.75 -2.67,1.64 0.56,4.08 0.92,8.5 0.92,13.43 0,1.43 -0.15,3.04 -0.19,4.53 z m 19.98,13.98 c -0.22,0.45 -0.53,0.82 -0.53,1.5 0,1.66 0.47,3.56 0.49,3.58 0.93,2.92 1.51,5.64 2.09,8.39 4.26,-2.11 8.64,-3.76 12.96,-4.98 -1.86,-0.49 -3.58,-1.36 -5.05,-2.64 -3.18,-2.82 -7.59,-5.27 -9.96,-5.85 z m -0.56,45.87 c -2.54,3.22 -4.15,6.66 -4.93,10.48 -1.36,6.81 -1.97,12.54 -1.97,17.36 0,7.76 1.76,12.62 3.97,16.44 3.73,-13.06 13.9,-19.12 23.66,-21.54 7.1,-1.75 13.82,-0.62 19.52,3.34 14.22,9.85 17.01,34.16 19.97,59.91 l 0.79,6.86 c 0.15,1.11 0.75,5.9 0.75,5.9 0.97,7.18 4.79,16.68 10.48,26.03 3.23,5.33 32.72,51.45 67.99,31.36 5.91,-3.37 8.37,-10.71 7.29,-21.83 l -1.24,-7.93 c 0,0.05 0,0.08 0,0.08 0,0 0,-0.06 0,-0.11 -1.61,-6.89 -4.43,-9.91 -7.01,-11.93 -0.54,-0.51 -10.78,-6.21 -10.78,-6.21 -15.11,-7.4 -35.79,-17.54 -41.59,-60.16 v 0 c 0,-0.02 -0.01,-0.03 -0.01,-0.03 l -0.49,-3.37 c -0.1,-0.59 -0.17,-1.02 -0.17,-1.02 -0.86,-8.23 -2.41,-15.66 -4.69,-22.71 -3.32,-10.15 -8.06,-18.23 -14.1,-24.04 -11.54,-11.09 -25.95,-12.77 -36.02,-12.23 -7.79,0.45 -23.2,4.98 -31.42,15.35 z m 134.45,71.01 c -0.51,-2.51 -1.04,-5.02 -1.62,-7.41 -4.27,1.63 -9.26,2.72 -15.07,3.11 3.86,7.71 8.84,12.35 14.76,15.67 z m -39.36,-78.8 c 3.62,-3.27 7.7,-5.99 12.14,-8.09 -0.61,-0.18 -1.14,-0.46 -1.84,-0.46 -3.27,0 -7.84,2.35 -12.34,5.61 0.68,0.95 1.39,1.92 2.04,2.94 z m 11.27,26.25 c 1.91,6.8 3.39,13.87 4.27,21.46 1.27,1.14 2.61,2.43 3.73,2.43 9.04,0 12.89,-2.71 13.61,-3.75 l -0.44,0.98 c 1.65,-3.77 5.25,-7.04 9.33,-7.77 4.03,-0.75 8.4,0.02 11.27,2.97 1.4,1.44 2.74,3.99 3.96,7.07 1.53,-1.29 3.1,-2.47 4.77,-3.61 -0.15,-2.41 -0.29,-4.68 -0.41,-6.71 l -0.09,-1.31 c -0.13,-2.05 -0.23,-3.86 -0.33,-5.23 -3.38,-8.4 -8.75,-14.67 -15.84,-17.91 -4.15,-1.87 -8.81,-2.83 -13.86,-2.83 -8.27,0 -16.96,6.64 -19.97,14.21 z m 50.24,67.32 0.23,1.82 c 0.38,2.96 1.13,8.78 1.41,10.9 3.13,3.13 5.74,6.72 7.77,10.73 0.08,-1.45 0.18,-2.99 0.31,-4.64 0.02,-0.5 0.07,-0.99 0.12,-1.51 0.13,-1.51 0.27,-3.05 0.47,-4.64 0.04,-0.53 0.09,-1.03 0.16,-1.56 0.51,-4.15 1.25,-8.35 2.27,-12.26 0.15,-0.54 0.29,-1.04 0.45,-1.56 0.41,-1.41 0.87,-2.76 1.38,-4.04 0.19,-0.5 0.37,-1.01 0.57,-1.47 0.72,-1.63 1.51,-3.13 2.4,-4.38 2.54,-3.5 6.71,-5.4 10.99,-5.04 4.3,0.35 8.09,2.91 10.02,6.75 2.42,4.82 3.49,5.98 3.84,6.28 0.68,0.05 2.93,-0.06 8.72,-2.02 1.29,-0.58 4.97,-2.56 4.97,-2.56 0.67,-0.54 1.66,-1.43 2.4,-3.19 0.08,-0.18 0.14,-0.41 0.21,-0.61 0.25,-0.69 0.39,-1.61 0.53,-2.58 0.07,-0.48 0.11,-0.94 0.14,-1.49 0.07,-1.46 0.05,-3.11 -0.21,-5.19 -0.44,-3.3 -1.76,-13.26 -19.23,-12.76 -7.75,0.25 -15.16,2.03 -21.49,5.17 -8.21,4.04 -13.73,10.2 -16.42,18.3 z m 24.28,-57.76 c 1.65,-0.36 3.32,-0.67 5.01,-0.94 1.1,-4.02 2.86,-8.43 5.6,-12.4 0.17,-0.24 0.35,-0.44 0.52,-0.67 1.17,-1.58 2.52,-3.01 4.05,-4.34 0.47,-0.42 0.95,-0.84 1.46,-1.22 1.97,-1.44 4.1,-2.72 6.69,-3.56 4.81,-1.58 10.08,-0.04 13.31,3.85 2.96,3.57 5.78,5.35 8.4,6.11 0.8,0.22 1.52,0.21 2.26,0.28 0.53,0.05 1.06,0.21 1.54,0.19 1.23,-0.03 2.4,-0.21 3.51,-0.45 2.24,-0.52 3.32,-1.35 4.25,-3.35 l 1.27,-4.04 c 0,-0.04 0.78,-9.4 0.78,-9.4 0,-7.07 -13.98,-16.48 -24.51,-16.48 -20.27,0 -34.14,16.2 -34.48,40.32 0,0 0.16,2.89 0.34,6.1 z m 140.49,248.54 c -1.91,-0.1 -7.34,-0.46 -7.34,-0.46 -37.03,-0.41 -75.24,-4.83 -112.95,-13.12 -19.78,-4.34 -38.42,-9.26 -55.88,-14.62 -2.13,-0.04 -4.15,-0.49 -5.95,-1.52 -0.68,11.62 -5.56,21.56 -13.49,28.66 34.7,9.03 72.2,16.23 110.2,21.07 26.23,3.32 54.71,4.87 84.75,4.82 1.42,-1.5 3.12,-2.77 5.23,-3.41 3.83,-1.17 5.9,-4.34 6.25,-9.46 0.04,-0.35 0.08,-0.76 0.08,-1.26 0,-2.99 -1.17,-8.45 -10.9,-10.7 z m -93.16,-33.43 c -3.51,-6.12 -5.8,-12.93 -6.28,-20.25 -0.03,-0.51 -0.03,-1.04 -0.05,-1.57 -8.01,3.67 -16.49,7.22 -25.3,10.63 l -1.74,4.2 c 3.85,0.91 7.6,1.88 11.53,2.75 7.28,1.61 14.55,2.94 21.84,4.24 z m -96.84,-25.2 c 4.92,1.71 10.11,3.36 15.29,5.01 11.01,-3.27 21.72,-6.78 31.89,-10.49 2.79,-3.87 7.36,-5.56 12.04,-4.62 17.22,-6.79 32.73,-14.1 46.09,-21.7 0.34,-0.17 0.63,-0.37 0.94,-0.53 9.53,-5.44 17.97,-11.02 24.96,-16.64 0.26,-1.4 0.57,-2.82 0.92,-4.25 -22.89,17.55 -48.46,20.88 -71.56,8.18 -0.64,-0.11 -1.24,-0.1 -1.88,-0.32 -7.67,-2.64 -15.12,-6.92 -22.03,-12.47 -3.35,7.39 -8.46,13.42 -15.59,17.46 -34.08,19.46 -68.46,2.37 -91.35,-25.91 -5.16,1.41 -11.16,2.44 -17.56,3.07 4.74,8.47 6.49,16.23 7.05,22.22 5.44,4.32 11.72,8.54 18.54,12.65 2.56,0.54 5,1.66 6.82,3.76 0.18,0.19 0.29,0.42 0.45,0.61 11.97,6.6 25.87,12.89 41.18,18.8 5.34,-1.6 10.92,0.36 13.8,5.17 z m -84.69,-88.46 c -3.72,-7.2 -6.41,-14.28 -8.02,-20.89 -0.62,-2.26 -1.09,-4.46 -1.35,-6.59 0,-0.01 -0.63,-5.03 -0.63,-5.03 -0.16,-1.17 -0.98,-8.15 -0.98,-8.15 -1.41,-12.34 -4.36,-37.49 -9.28,-42.02 -4.57,1.17 -6.63,2.4 -6.63,7.16 0,1.8 0.28,4.15 0.82,7.15 l -1.12,12.64 c -0.35,3.79 -2.44,4.25 -5.66,6.3 -3.21,2.05 -7.19,-0.49 -10.8,-1.76 l -1.2,-0.43 c -3.19,-1.11 -6.11,-2.48 -8.86,-3.96 -0.87,-0.48 -1.61,-1.01 -2.43,-1.52 -1.83,-1.12 -3.56,-2.34 -5.19,-3.66 -0.78,-0.63 -1.54,-1.3 -2.27,-1.98 -1.54,-1.47 -2.95,-3.04 -4.25,-4.69 -0.51,-0.64 -1.05,-1.22 -1.51,-1.88 -1.64,-2.36 -3.1,-4.9 -4.29,-7.61 -0.21,-0.49 -0.35,-1.07 -0.53,-1.57 -0.92,-2.3 -1.7,-4.72 -2.28,-7.28 -0.24,-1 -0.42,-2.09 -0.6,-3.15 -0.41,-2.24 -0.69,-4.55 -0.85,-6.97 -0.1,-1.18 -0.19,-2.33 -0.22,-3.54 -0.01,-0.69 -0.12,-1.32 -0.12,-2.02 0,-1.87 0.22,-3.89 0.34,-5.85 0.09,-1.29 0.09,-2.53 0.23,-3.87 0.4,-4.06 0.98,-8.28 1.88,-12.7 0.11,-0.53 0.39,-1 0.51,-1.53 -4.36,-1.56 -8.26,-4.41 -11.65,-8.59 -0.06,-0.08 -0.12,-0.17 -0.17,-0.24 -1.48,-1.87 -2.86,-3.98 -4.14,-6.36 -0.3,-0.54 -0.6,-1.07 -0.88,-1.62 -1.32,-2.63 -2.58,-5.45 -3.68,-8.65 l -4.7,-16.11 c -6.68,-24.98 -11.24,-35.44 -22.13,-35.44 -5.81,0 -10.92,5.7 -14.17,10.48 l -1.62,2.58 c -0.01,0.01 -6.07,12.72 -6.07,12.72 -0.58,1.51 -1.04,2.79 -1.46,3.97 -0.12,0.35 -0.22,0.65 -0.33,0.95 -0.31,0.9 -0.57,1.7 -0.8,2.48 -0.09,0.3 -0.18,0.6 -0.25,0.89 -0.24,0.85 -0.43,1.66 -0.55,2.45 -0.01,0.12 -0.04,0.21 -0.06,0.32 -0.13,0.89 -0.19,1.79 -0.2,2.73 0,0.25 0.02,0.49 0.02,0.72 0.01,0.82 0.07,1.66 0.16,2.58 0.04,0.35 0.07,0.7 0.11,1.06 0.08,0.59 0.21,1.32 0.3,1.99 0.53,1.41 0.75,2.88 0.73,4.35 l 0.87,4.65 c 0.41,2.01 1.89,4.36 4.19,6.6 v 0.02 c 0.61,0.6 1.23,0.92 1.85,1.43 6.73,-10.33 16.17,-10.39 21.91,-9.13 23.42,5.08 25.49,39.82 26.1,70.08 0.03,2.03 0.06,4.02 0.1,5.98 l 0.41,14.48 1.3,7.68 c 5.52,25.27 29.16,47.12 54.92,50.84 0.23,0.04 0.53,0.04 0.76,0.07 2.84,-0.81 5.77,-0.57 8.54,0.72 8.77,0.37 18.34,-0.19 25.88,-1.28 z M 2646.75,2190 c 0,-1.62 -0.17,-3.56 -0.56,-5.81 -0.07,1.45 -0.4,2.74 -0.95,3.92 0.85,1.27 1.46,1.9 1.48,1.91 z m -49.36,78.96 c -0.05,-1.44 -0.08,-2.4 -0.08,-2.4 -0.2,-11.25 -0.91,-37.52 -5.22,-47.99 -0.59,1.52 -1.23,3.11 -1.23,3.11 -1.72,4.3 -4.9,5.66 -9.51,6.09 -1.23,0.12 -2.58,-0.21 -3.87,-0.37 0.32,1.72 0.55,3.51 1.15,4.98 l 3.05,7.43 c 6.02,14.74 10.28,23.78 15.72,29.81 0,-0.26 -0.01,-0.41 -0.01,-0.66 z m -7.68,26.67 c -15.9,-9.83 -22.75,-26.59 -30.86,-46.49 l -3.01,-7.31 c -3.73,-9.02 -4.07,-18.32 -4.36,-26.54 l -0.19,-3.77 c -0.69,-0.84 -1.29,-1.72 -1.89,-2.58 -11.63,12.22 -25.02,28.09 -31.04,38.87 -12.75,22.78 -13.96,31.35 -16.66,50.11 l -1.01,7.02 c -1.81,10.07 -4.6,18.26 -8.54,28.31 -5.25,13.44 -12.2,25.58 -20.31,36.36 6.89,-0.1 13.73,0.27 20.49,1.68 0.97,0.02 13.83,0.36 13.83,0.36 l 21.3,0.52 c 32.71,-3.56 59.24,-14.59 64.44,-26.82 0.45,-1.05 1.03,-2.05 1.76,-2.94 1.84,-2.27 2.04,-3.41 2.44,-9.35 0,0 0.38,-3.98 0.65,-6.66 -0.58,-2.52 -4.77,-20.83 -7.04,-30.77 z m -45.16,-137.76 c -3.87,1.33 -7.03,4.49 -8.28,6.33 -0.88,1.32 -0.76,2.75 -1.42,4.16 2.4,-0.51 4.67,-0.53 6.85,-0.26 0.6,-3.33 1.55,-6.56 2.85,-10.23 z m -8.1,-39.96 c 0,5.04 -0.44,10.64 -1.22,16.74 2.86,-1.09 5.8,-1.78 8.83,-2.07 1.62,-0.31 3.27,-0.52 4.95,-0.42 l 1.24,-0.13 c 0.18,-0.02 0.34,-0.03 0.55,-0.04 -2.48,-7.77 -5.18,-15.81 -8.32,-23.44 -0.39,-0.95 -0.82,-1.85 -1.23,-2.79 -1.23,-2.83 -2.46,-5.64 -3.82,-8.33 -1.83,-3.54 -3.77,-6.91 -5.87,-9.99 -0.12,-0.19 -0.22,-0.39 -0.33,-0.56 -6.85,-9.91 -14.34,-15.4 -22.89,-16.76 -0.16,-0.04 -1.82,-0.35 -1.82,-0.35 -2.54,-0.26 -7.59,-0.29 -10.54,2.62 -0.78,0.76 -0.68,2.84 -1.19,4.04 2.52,-0.82 5.07,-1.57 8.03,-1.38 10.72,0.75 19.06,4.68 24.79,11.72 5.94,7.27 8.84,17.37 8.84,31.14 z m -2.4,-63.1 c 0.72,-3.54 1.2,-6.33 1.2,-7.96 0,-1.68 -0.61,-2.26 -1.26,-2.87 -0.2,0.13 -2.83,2.09 -2.83,2.09 -2.24,1.64 -4.85,1.84 -7.5,1.41 -0.06,0.63 -0.1,1.09 -0.15,1.5 3.67,1.52 7.18,3.46 10.54,5.83 z m -3.15,-109.49 c 7.76,5.96 12.06,11.73 14.44,17.3 0.09,-5.4 0.61,-11.09 1.75,-17.2 0,-0.03 0.02,-0.04 0.02,-0.06 1.62,-8.5 5.47,-22.79 13.93,-34.79 -0.91,-1.28 -2.03,-2.84 -2.03,-2.84 -1.84,-2.08 -4.68,-4.55 -7.71,-4.62 -2.74,-0.05 -4.99,1.82 -6.09,2.96 -0.66,0.7 -2.28,3.22 -2.49,11.61 -0.17,6.3 -6.04,11.99 -12.31,12.52 -0.2,0.01 -16.33,2.94 -20.13,14.47 2.22,-1.35 4.62,-2.38 7.28,-2.79 z m 9.03,49.28 c 3.28,-0.35 6.57,-0.32 9.82,0.03 -1.34,-5.19 -2.55,-10.53 -3.36,-16.15 -1.16,5.95 -3.52,11.36 -6.46,16.12 z m 20.93,29.58 c -0.68,-0.46 -2.35,-1.54 -2.35,-1.54 -6.74,-3.55 -15.19,-4.68 -19.38,-2.66 2.78,0.7 5.83,1.13 7.9,2.46 9.9,6.41 12.78,15.15 12.78,24.19 0,6.92 -1.66,14.05 -3.18,20.46 0,0 -1,4.79 -1.84,8.79 l -0.38,1.83 c 7.47,12.11 13.11,26.04 17.68,39.63 7.03,-4.44 13.77,-5.78 19.06,-5.78 2.67,0 5.12,0.32 7.48,0.73 -3.33,-3.48 -6.01,-8.26 -6.01,-15.67 0,-1.21 0.07,-2.52 0.22,-3.89 1.25,-11.64 7.2,-17.09 11.99,-19.59 3.02,-1.57 6.11,-1.97 9.12,-2.13 -0.34,-3.05 -0.92,-5.88 -2.09,-7.69 l -0.78,-1.02 c -3.7,-3.13 -14.44,-1.85 -19.61,-1.25 l -6.8,0.56 c -3.28,0.28 -6.02,-0.8 -8.54,-2.94 -2.49,-2.15 -3.52,-5.23 -3.76,-8.51 -0.93,-13.16 -4.49,-21.17 -11.51,-25.98 z m 480.75,177.28 c 0.23,-0.44 0.52,-0.86 0.8,-1.28 2.28,-3.48 5.05,-6.31 8.41,-8.32 0.41,-0.24 0.84,-0.46 1.27,-0.69 1.78,-0.92 3.64,-1.69 5.75,-2.15 2.2,-0.47 4.31,-0.61 6.32,-0.43 4.01,0.4 7.6,2.11 10.77,5.06 1.58,1.49 3.06,3.25 4.47,5.33 0.19,-0.31 0.35,-0.43 0.56,-0.76 l 4.28,-8.17 c 0,-0.04 1.78,-6.13 1.78,-6.13 0.19,-0.66 0.33,-1.19 0.51,-1.82 0.74,-2.71 1.33,-5.06 1.79,-7.33 0.14,-0.66 0.26,-1.31 0.38,-1.95 0.37,-2.17 0.6,-4.25 0.64,-6.28 0,-0.17 0.02,-0.38 0.02,-0.54 0,-1.76 -0.43,-3.66 -0.72,-5.49 -0.22,-1.22 -0.18,-2.37 -0.53,-3.67 -0.04,-0.08 -0.1,-0.23 -0.1,-0.26 0,-0.03 0.04,0.02 0.08,0.16 l -3.3,-7.57 c -0.02,-0.05 -4.75,-6.08 -4.77,-6.11 H 3080 c -2.54,-2.45 -5.46,-4.43 -8.47,-5.79 -1.51,-0.66 -3.05,-1.18 -4.55,-1.53 -1.55,-0.35 -3.05,-0.53 -4.53,-0.53 -4.26,0 -9.16,1.4 -14.24,12.09 0.04,0.27 0.06,0.53 0.11,0.8 0.73,4.94 1.57,10.8 1.57,10.8 0,4.85 -0.39,9.23 -0.96,13.36 -0.12,0.81 -0.2,1.63 -0.33,2.41 -0.65,4.02 -1.49,7.73 -2.54,11.1 -0.02,0.13 -0.06,0.25 -0.12,0.38 -2.3,7.32 -5.35,13.13 -8.53,17.7 0.45,1.25 0.91,2.4 1.27,3.38 v 0 c 0.87,-2.07 1.85,-3.98 2.93,-5.77 z m 14.6,67.13 c 5.43,-6 9.69,-15.04 15.71,-29.82 0,0 2.79,-6.76 2.95,-7.19 -0.28,0 -0.57,-0.02 -0.84,-0.04 -4.61,-0.43 -7.8,-1.77 -9.51,-6.08 l -2.19,-5.52 c -0.18,-0.53 -0.53,-1.52 -0.82,-2.38 -4.32,10.45 -5.04,36.74 -5.22,48 0,0 -0.06,2.09 -0.08,3.03 z m 25,-219.47 c -0.23,3.28 -1.25,6.37 -3.75,8.51 -2.5,2.16 -5.23,3.23 -8.55,2.98 l -6.68,-0.57 c -5.29,-0.61 -14.14,-1.63 -18.69,0.68 l -1.08,0.59 c -1.5,1.29 -2.3,4.75 -2.77,8.67 3.01,0.19 6.08,0.56 9.1,2.14 4.75,2.5 10.71,7.94 11.98,19.58 0.13,1.37 0.21,2.68 0.21,3.9 0,7.43 -2.68,12.23 -6.02,15.69 2.41,-0.46 4.89,-0.75 7.49,-0.75 6.56,0 13.2,1.64 19.47,4.51 4.49,-13.17 10.04,-26.6 17.26,-38.36 l -0.86,-4.09 c -0.41,-2 -0.82,-3.96 -1.07,-5.18 l -0.27,-1.33 c -1.53,-6.45 -3.19,-13.57 -3.19,-20.46 0,-9.08 2.87,-17.82 12.8,-24.21 2.01,-1.32 5.02,-1.7 7.73,-2.42 -3.73,-1.73 -10.53,-1.13 -17.03,1.66 -1.08,0.45 -2.21,0.95 -2.21,0.95 -8.67,4.56 -12.81,12.78 -13.87,27.51 z m 32.58,-55.24 c -1.03,-1.67 -2.05,-3.35 -3,-5.19 -0.41,1.6 -0.86,3.15 -1.27,4.71 0.17,0.01 0.35,0.08 0.52,0.1 1.29,0.02 2.52,0.22 3.75,0.38 z m -0.31,-54.61 c 0.78,4.21 1.21,8.17 1.47,12.04 2.12,-2.32 4.68,-4.66 7.75,-7.01 0.04,0 13.34,-3.46 13.34,-3.46 2.79,0.44 5.27,1.58 7.58,3.02 -3.38,-11.69 -20.22,-14.67 -20.39,-14.71 -6.29,-0.5 -12.19,-6.2 -12.35,-12.49 -0.21,-8.39 -1.81,-10.92 -2.5,-11.62 -1.07,-1.13 -3.34,-3.03 -6.07,-2.97 -1.23,0.02 -2.4,0.54 -3.54,1.19 6.86,9.35 12.03,21.8 14.71,36.01 z m 16.47,107.19 c -2.64,0.4 -5.26,0.24 -7.45,-1.4 0,0 -2.67,-1.99 -2.89,-2.13 -0.66,0.63 -1.27,1.21 -1.27,2.91 0,1.6 0.49,4.4 1.23,7.92 3.34,-2.37 6.86,-4.33 10.51,-5.85 -0.02,-0.39 -0.08,-0.86 -0.13,-1.45 z m -7.56,39.4 c -0.12,0.15 -0.22,0.36 -0.34,0.53 -2.1,3.1 -4.06,6.48 -5.89,10.05 -1.31,2.55 -2.48,5.27 -3.68,7.99 -0.44,1.07 -0.95,2.11 -1.4,3.19 -3.11,7.63 -5.82,15.65 -8.3,23.39 l 1.81,0.14 c 1.7,-0.11 3.34,0.1 4.95,0.41 3.04,0.3 5.99,0.97 8.82,2.07 -0.76,-6.09 -1.21,-11.72 -1.21,-16.77 0,-13.76 2.89,-23.83 8.83,-31.11 5.74,-7.04 14.1,-10.99 24.81,-11.72 2.96,-0.21 5.52,0.54 8,1.36 -0.49,-1.21 -0.39,-3.26 -1.17,-4.03 -2.93,-2.88 -7.93,-2.86 -10.68,-2.6 0,0 -1.53,0.29 -1.66,0.3 -8.56,1.41 -16.06,6.9 -22.89,16.8 z m -8.48,80.89 c 1.8,-0.02 3.67,0.22 5.55,0.69 -0.67,-1.44 -1.21,-2.92 -2.11,-4.26 0,0 -0.04,0 -0.04,-0.02 -0.02,-0.03 -0.04,-0.07 -0.06,-0.1 -0.76,-1.09 -2.07,-2.66 -3.75,-4.12 0.21,1.67 0.27,3.29 0.33,4.92 0.08,0.71 0.24,1.46 0.24,2.16 0,0.24 -0.16,0.5 -0.16,0.73 z m -9.69,37.72 c -0.62,1.25 -1.21,2.42 -1.76,3.54 l -0.33,6.29 c -0.29,8.19 -0.64,17.5 -4.35,26.51 l -3.03,7.3 c -9.82,24.14 -17.99,43.52 -42.46,51.65 -0.2,0.6 -0.41,1.22 -0.63,1.83 -1.95,8.09 -4.39,18.2 -4.9,20.23 0.28,2.7 0.67,6.59 0.67,6.59 0.39,5.95 0.58,7.07 2.44,9.36 0.7,0.88 1.31,1.86 1.74,2.91 5.21,12.25 31.75,23.28 64.55,26.85 0,-0.03 21.15,-0.53 21.15,-0.53 0,0 12.89,-0.34 13.87,-0.36 11.05,-2.29 22.32,-2.34 33.71,-0.53 -6.23,-9.22 -11.62,-19.32 -15.92,-30.28 -3.93,-10.08 -6.72,-18.27 -8.48,-27.95 -0.06,-0.36 -1.05,-7.39 -1.05,-7.39 -2.7,-18.75 -3.93,-27.31 -16.66,-50.09 -6.41,-11.47 -24.67,-31.95 -38.56,-45.93 z m -27.67,352.85 c 1.15,-0.53 2.34,-1.09 3.47,-1.64 -0.99,-0.5 -2.05,-0.82 -3.04,-1.38 -0.12,1.01 -0.26,2.03 -0.43,3.02 z m -320.86,67.38 c 16.86,3.69 33.65,6.91 50.26,9.68 0.1,-0.01 0.25,-0.04 0.36,-0.05 2.37,-0.33 4.57,0.22 6.6,1.12 111.68,17.74 214.07,14.14 273.21,-10.47 5.84,-3.31 10.54,-8.5 11.03,-15.84 0.06,-0.5 0.06,-1 0.06,-1.48 0,-10.9 -8.05,-20.12 -18.51,-20.88 0,0 -3.11,0.03 -3.13,0.03 -0.04,0.03 -10.94,1.55 -10.94,1.55 -28.24,4.16 -58.9,6.48 -90.99,6.97 -30.94,0.47 -63.23,-0.74 -95.99,-3.7 -37.4,-3.38 -80.69,-11.25 -128.86,-23.34 0.24,1.19 0.66,2.33 0.8,3.55 0.26,2.34 0.41,4.68 0.41,6.98 0,9.61 -2.5,18.74 -7.09,26.78 -1.82,3.18 -3.87,6.21 -6.35,8.99 -1.5,1.69 -3.3,3.01 -4.98,4.48 7.93,1.94 15.94,3.83 24.11,5.63 z m -44.06,-85.25 c 1.87,-4.73 7.05,-7.8 12.14,-7.8 l 12.82,0.06 c 14.34,-1.89 18.28,-16 16.89,-27.49 -0.32,-2.91 -3.77,-6.56 -7.12,-10.1 l -2.79,-3.01 c -3.48,-3.75 -3.4,-9.06 -1.12,-13.65 2.25,-4.59 8.02,-7.09 13.12,-6.6 l 9.9,0.96 c 11.44,-1.45 17.66,-9.77 16.23,-21.69 0.02,0.06 -0.68,-1.57 -1.52,-3.61 -9.01,-3.4 -17.59,-6.92 -25.66,-10.58 -0.01,0.26 -0.01,0.51 -0.03,0.76 -0.85,12.59 -6.49,24.01 -15.89,32.19 -7.16,6.23 -15.97,9.41 -25.17,10.3 0.34,1.81 1.2,3.32 1.2,5.27 0,0.67 -0.02,1.33 -0.08,2 -0.99,14.63 -6.94,27.37 -16.7,35.88 -7.36,6.38 -16.4,9.59 -26.23,10.14 1.03,4.43 2.15,8.9 2.15,13.5 0,1.36 -0.04,2.75 -0.14,4.12 -0.96,14.3 -6.99,27.26 -16.66,37.33 -1.25,1.31 -2.34,2.73 -3.7,3.93 -1.59,1.37 -3.35,2.41 -5.04,3.58 14.15,4.82 28.91,9.41 44.2,13.77 0.07,0 0.14,-0.03 0.23,-0.03 8.77,0 16.46,-2.77 22.27,-7.63 1.1,-0.92 2.23,-1.76 3.19,-2.85 5.55,-6.24 8.04,-14.57 6.97,-23.45 -0.64,-5.41 -2.59,-10.44 -5.43,-14.91 -2.12,-1.41 -3.63,-3.4 -4.53,-5.73 -0.34,-0.35 -0.64,-0.77 -0.99,-1.11 -3.75,-3.46 -4.37,-8.81 -2.51,-13.55 z m -165.28,65.04 c 0.51,7.42 5.31,12.64 11.22,15.93 39.61,16.52 96.72,23.9 163.74,21.51 -44.63,-11.12 -86.26,-24.57 -123.74,-39.68 -0.82,-0.18 -1.44,-0.32 -1.44,-0.32 0.23,0.05 0.49,0 0.73,0.03 -14.36,-5.8 -28.15,-11.81 -41.2,-18.04 -7.97,2.98 -9.39,12.02 -9.39,17.95 0,0.96 0.04,1.86 0.08,2.62 z m -90.88,-115.67 c 15.13,15.56 35.99,31.55 61.92,47.18 1.22,0.28 2.44,0.57 3.56,1.23 4.48,2.63 9.39,4.17 14.58,4.55 1.87,0.11 3.7,0.03 5.53,-0.16 6.94,-0.65 13.55,-3.39 18.98,-8.11 7.33,-6.38 11.72,-15.33 12.4,-25.24 0.49,-7.14 -1.91,-12.34 -6.79,-20.01 -3.13,-4.89 -2.39,-11.32 1.75,-15.41 4.15,-4.07 10.57,-4.71 15.44,-1.5 4.43,2.93 9.36,4.58 14.64,4.96 8.14,0.6 16.08,-2.09 22.36,-7.54 6.7,-5.82 10.71,-14.01 11.34,-23.08 0.01,-2.4 -2.57,-10.64 -5.45,-17.19 -2.09,-4.79 -1.06,-10.43 2.74,-13.99 3.79,-3.58 9.3,-4.44 13.96,-2.05 l 3.27,1.65 c 3.95,2.06 11.35,5.91 15.59,6.41 9.51,0.94 18.46,-1.72 24.41,-7.31 5.25,-4.94 7.85,-11.79 7.54,-19.82 0.27,-4.83 -0.31,-16.99 -14.14,-29.41 -1.34,-0.14 -2.75,-0.26 -4.01,-0.43 -20.84,-3 -40.11,-14.29 -54.27,-30 l -0.1,1.17 c -0.43,6.34 -1.22,13.53 -6.73,21.29 -0.36,0.66 -0.69,1.33 -1.15,1.92 0.16,-0.2 0.14,-0.37 0.28,-0.55 -14.71,28.69 -62.61,37.1 -83.08,39.34 l -24.79,-0.4 -12.73,-0.37 c -0.84,-0.03 -2.42,-0.15 -3.24,-0.34 -13.83,-3.31 -28.4,-1.86 -43.32,4 -10.1,8.12 -16.49,17.2 -18.52,27.1 -0.52,2.52 -0.76,5.07 -0.76,7.67 0,16.38 9.98,35.07 28.79,54.44 z M 2215.04,2245.2 c 4.69,-11.9 11.92,-21.57 20.98,-28.78 11.11,-8.89 24.92,-14.04 40.71,-14.04 6.51,0 12.9,1.17 19.09,3.03 8.32,-24.54 28.15,-39.77 55.76,-39.77 13.34,0 25.82,4.56 36.45,12.06 9.21,-25.65 31.79,-43.96 58.47,-43.96 21.94,0 42.23,11.26 54.28,30.09 3.67,5.73 2.01,13.38 -3.75,17.03 -5.74,3.68 -13.36,1.99 -17.03,-3.75 -7.5,-11.7 -20.02,-18.7 -33.5,-18.7 -21.19,0 -38.43,19.85 -38.43,44.26 0,5.49 -3.62,10.32 -8.89,11.84 -5.28,1.54 -10.93,-0.6 -13.86,-5.24 -7.51,-11.89 -20.13,-18.97 -33.74,-18.97 -20.41,0 -33.02,11.77 -35.47,33.11 -0.49,4.13 -3.02,7.73 -6.73,9.62 -3.72,1.85 -8.13,1.73 -11.72,-0.37 -6.37,-3.68 -13.6,-5.62 -20.93,-5.62 -12.23,0 -22.49,4.41 -29.95,12.36 -7.45,7.94 -12.13,19.4 -13.23,33.54 0.07,0.05 0.59,10.93 0.63,11.99 30.89,56.2 70.68,95.1 116.25,108.76 0.45,0.14 0.91,0.33 1.37,0.46 1.76,0.23 6.95,0.91 6.95,0.91 44.73,9.23 90.8,-20.63 110.43,-70.79 3.48,-8.9 5.77,-15.56 7.16,-23.32 0,-0.07 0.94,-6.52 0.94,-6.52 2.84,-19.87 4.56,-31.87 19.53,-58.63 4.99,-8.93 13.67,-20.23 22.86,-30.85 -2,-1.13 -3.73,-2.78 -4.93,-4.86 -1.2,-2.05 -7.17,-12.61 -7.63,-19.82 -0.52,-7.97 1.57,-16.57 5.62,-24.42 -1.53,-5.13 -2.57,-10.33 -2.57,-15.66 0,-2.53 0.17,-5.08 0.51,-7.63 0.8,-5.94 1.11,-10.72 1.11,-14.63 0,-10.15 -2.11,-14.13 -3.27,-15.57 -0.53,-0.65 -2.04,-2.01 -6.57,-2.52 -0.97,0.63 -2.74,2.45 -4.25,5.04 -2.08,3.58 -6.18,5.33 -10.3,5.57 -4.12,0.23 -8.44,-2.13 -10.92,-5.41 -4.89,0.64 -9.88,-1.66 -12.4,-6.23 -7.72,-14.06 -22.14,-22.79 -37.65,-22.79 -23.9,0 -43.34,20.25 -43.34,45.17 0,6.24 -4.68,11.51 -10.89,12.25 -6.2,0.73 -11.98,-3.28 -13.44,-9.37 -4.42,-18.31 -21.21,-30.12 -42.78,-30.12 -19.81,0 -37.09,13.94 -41.98,33.9 -0.97,3.92 -3.76,7.09 -7.5,8.58 -3.74,1.46 -7.95,1 -11.3,-1.22 -7.23,-4.8 -12.38,-6.42 -20.44,-6.42 -8.16,0 -18.33,1.75 -27.4,11.59 -6.2,6.73 -11.9,17.23 -16.1,33.7 -0.07,0.26 -0.25,0.44 -0.33,0.68 6.81,25.1 14.92,48.66 24.12,70.44 z m -33.7,-111.08 c 5.6,-8.74 11.94,-15.1 18.58,-19.64 11.54,-7.87 23.97,-10.34 34.83,-10.34 7.83,0 14.55,1.62 21.13,4.16 11.32,-23.28 33.89,-39.02 60.09,-39.02 20.4,0 37.8,8.21 50.26,20.99 11.21,-22.83 33.65,-38.92 60.19,-38.92 16.4,0 31.9,6.21 44.05,16.79 2.09,-6.06 5.25,-10.41 8.21,-13.33 5.34,-5.25 12.43,-8.38 20.42,-9.37 l 0.68,-7.45 1.51,-13.97 c 1.37,-16.97 9.48,-29.35 15.39,-38.39 4.22,-6.45 6.42,-9.8 6.42,-12.41 0,-1.59 -1.09,-3.01 -2.76,-4.59 -1.59,1.94 -3.21,4.12 -4.14,5.49 l -8.2,8.47 c -3.02,3.14 -6.03,1.92 -10.25,0.93 -4.24,-0.99 -6.21,-6.66 -7.53,-10.81 l -2.43,-7.64 -3.61,-13.25 c -0.06,-1.02 -0.1,-2.03 -0.1,-3.05 0,-11.88 4.75,-22.25 13.85,-30.14 6.29,-5.45 13.9,-8.58 20.99,-10.62 0.95,-6.08 3.02,-13.37 8.58,-19.11 6.7,-6.94 15.36,-10.64 24.33,-10.45 6.59,0.14 16.39,2.49 25.63,12.91 0,0 0.92,1.28 2.15,2.98 3.26,-1.47 6.6,-2.52 10.06,-2.93 1.13,-0.14 2.14,-0.14 3.21,-0.22 -2.19,-44.22 5.62,-77.15 28.57,-123.1 2.48,-4.98 4.84,-9.55 7.18,-13.98 -3.75,-1.45 -7.79,-2.32 -11.91,-2.47 -15.17,4.53 -23.86,10.14 -34.93,29.71 -0.22,0.42 -0.48,0.82 -0.75,1.19 l -10.65,14.67 c -16.92,38.43 -53.42,64.97 -96.57,71.01 -9.39,49.42 -14.82,114.57 -13.06,159.47 0.55,1.77 1.22,3.52 1.61,5.38 1.38,6.66 -2.89,13.19 -9.56,14.57 -6.67,1.38 -13.2,-2.91 -14.59,-9.57 -3.42,-16.41 -17.58,-28.32 -33.7,-28.32 -13.29,0 -25.54,8.12 -31.22,20.68 -2.39,5.28 -8.15,8.16 -13.83,6.95 -5.68,-1.23 -9.74,-6.25 -9.74,-12.05 0,-21.64 -17.25,-37.93 -40.14,-37.93 -17.04,0 -30.17,18.78 -35.16,36.23 -1.56,5.43 -6.62,9.11 -12.29,8.92 -5.66,-0.19 -10.46,-4.22 -11.64,-9.77 -4.3,-20.26 -19.97,-34.42 -38.11,-34.42 -12.95,0 -24.25,7.62 -32.3,20.35 -5.63,8.95 -9.71,20.29 -11.41,33.61 -0.02,0.28 -0.19,0.47 -0.25,0.73 2.63,31.68 6.98,62.16 12.91,91.07 z m 338.68,-463.31 c 0,0 0.07,-0.12 0.08,-0.13 -1.03,-19.04 -15.86,-34.29 -34.32,-34.29 -3.73,0 -7.3,0.84 -10.8,2.05 -1.29,1.18 -2.6,2.38 -2.6,2.38 -3.4,3.11 -8.22,4.07 -12.53,2.51 -4.32,-1.57 -7.41,-5.38 -8.03,-9.92 -2.29,-16.81 -14.63,-26.81 -32.97,-26.81 -10.94,0 -19.15,3.37 -25.1,10.25 -0.41,0.46 -0.95,0.7 -1.4,1.09 -31.7,68.87 -36.59,133.49 -8.28,182.13 4.25,8.35 8.57,16.21 13.64,22.88 2.64,1.48 4.53,3.72 5.53,6.48 4.5,4.51 9.65,8.11 15.81,10.3 11.79,4.93 21.26,5.15 35.78,5.15 41.96,0 78.77,-23.19 93.77,-59.11 0.38,-0.88 0.84,-1.72 1.4,-2.49 l 10.8,-14.86 c 3.67,-6.41 7.3,-11.82 11.11,-16.47 2.03,-5.11 5.26,-21.66 5.26,-27.16 0,-19.99 -15.57,-36.25 -34.71,-36.25 l -5.86,1.09 c -2.11,0.4 -6.83,0.94 -8.86,0.23 l -1.51,-0.54 c -3.51,-1.21 -6.11,-4.2 -7.39,-7.68 -0.45,-1.29 -0.67,-2.68 -0.67,-4.05 0,-2.36 0.65,-4.78 1.85,-6.78 z m -174.41,12.75 c -2.29,5.07 -9.57,21.26 -9.57,21.26 l -14.9,34.03 c 0,0.03 -6.6,19.44 -6.6,19.44 -0.09,0.25 -14.66,42.39 -14.66,42.39 -17.52,59.16 -22.33,120.26 -23.47,175.34 9.15,-8.02 20.23,-13.27 33.18,-13.27 16.89,0 31.73,5.73 42.93,15.31 4.02,-43.12 12.91,-92.02 25.52,-140.32 -6.18,-8.19 -11.2,-17.18 -15.62,-25.85 -21.17,-36.38 -26.09,-80.48 -16.81,-128.33 z m 30.55,309.53 c 8.51,-5.02 18.15,-8.01 28.36,-8.01 11.46,0 22.25,3.59 31.48,9.62 0.97,-39.97 5.56,-86.59 12.5,-125.23 -13.91,-0.19 -25.16,-1.22 -38.36,-6.76 -4.21,-1.48 -7.98,-3.48 -11.55,-5.7 -11.58,47.22 -19.46,95.26 -22.43,136.08 z m 107.76,-566.15 -0.95,-1.94 c -7.89,-14.63 -22.68,-24.36 -37.49,-24.36 -11.9,-0.72 -18.34,0.74 -28.58,5.61 -1.74,0.83 -3.56,1.74 -5.58,2.77 -0.02,0.05 -13.53,8.13 -15.35,9.23 -1.98,1.61 -8.04,6.59 -8.04,6.59 l -7.09,6.82 c -0.19,0.2 -1.45,1.53 -1.66,1.71 -15.89,13.33 -44.16,45.61 -58.21,66.4 0.15,-0.22 -50.13,77.76 -50.13,77.76 -10.37,15.33 -17.11,27.67 -26.23,44.77 -45.29,85.59 -72.25,190.53 -77.99,303.43 -0.78,15.43 -1.17,30.73 -1.17,45.83 0,5.04 0.08,10.03 0.18,15 3.57,-4.26 7.45,-8.01 11.68,-11.15 10.17,-7.53 22.09,-11.72 35.08,-11.72 14.89,0 28.45,5.82 39.27,15.42 1.03,-57.71 5.86,-122.31 24.55,-185.43 l 15.06,-43.58 c -0.08,0.23 6.62,-19.51 6.62,-19.51 0.12,-0.34 15.88,-36.36 15.88,-36.36 l 10,-22.22 c 14.34,-29.69 46.56,-77.58 67.89,-104.21 24.61,-42.02 57.75,-84.46 98.3,-125.17 -0.95,-5.33 -1.91,-7.32 -6.04,-15.69 z m 64.09,-3.69 c -1.31,1.21 -2.82,2.03 -4.39,2.56 -18.58,16.34 -35.82,33.08 -51.8,50 28.55,2.96 50.99,27.43 50.99,57.47 0,2.7 -0.65,5.27 -1.01,7.92 0.58,-0.01 0.99,-0.24 1.58,-0.24 30.29,0 54.65,24.68 56.1,55.39 4.17,-0.69 8.28,-1.08 12.16,-1.08 31.22,0 56.63,26.04 56.63,58.06 0,19.1 -9.17,36.98 -24.54,47.86 -5.55,3.91 -13.25,2.6 -17.18,-2.97 -3.94,-5.54 -2.61,-13.26 2.95,-17.18 8.82,-6.24 14.09,-16.61 14.09,-27.71 0,-18.4 -14.33,-33.4 -31.95,-33.4 -10.1,0 -14.96,1.66 -19.94,6.8 -4.41,4.56 -11.54,5.04 -16.51,1.1 -3.06,-2.43 -4.69,-6.02 -4.69,-9.69 0,-2.26 0.64,-4.59 1.96,-6.64 0,0 0.49,-0.77 0.99,-1.56 1.16,-3.51 1.88,-7.17 1.88,-10.92 0,-18.39 -14.33,-33.39 -31.95,-33.39 -7.45,0 -11.6,1.47 -17.09,6.08 -5.11,4.27 -12.48,3.52 -16.91,-1.46 -4.43,-4.98 -3.87,-12.81 0.98,-17.39 l 4.21,-3.97 c 2.07,-3.94 3.56,-9.73 3.56,-15.61 0,-18.4 -14.33,-33.39 -31.94,-33.39 -8.28,0 -16.14,3.31 -22.11,9.3 -1.19,1.19 -2.55,2.07 -4,2.67 -18.08,22.16 -33.75,44.49 -46.89,66.59 -0.36,1.48 -1.04,2.88 -1.98,4.19 2.54,-0.28 4.99,-0.71 7.64,-0.71 24.82,0 43.71,12.57 52.44,32.54 4.78,-1.26 9.5,-2.77 14.49,-2.77 29.78,0 53.45,23.01 57.68,52.37 32.26,0.59 58.39,27.48 58.39,60.72 0,1.61 -0.17,3.71 -0.42,5.97 3.3,-1.27 6.76,-2.48 10.57,-3.54 1.09,-0.33 2.2,-0.47 3.34,-0.47 9.04,0 17.94,2.14 25.95,5.94 7.38,-10.83 16.04,-20.7 28.34,-31.09 23.45,-19.82 36.07,-24.96 52.03,-31.46 l 16.8,-7.19 24.78,-12.78 c 9.41,-5.2 18.32,-10.01 28.42,-13.93 5.3,-9.66 10.84,-23.03 10.84,-27.95 0,-21.69 -16.88,-39.33 -37.67,-39.33 -1.01,0 -2.05,-0.12 -3.03,-0.37 -8.46,-2.15 -29.58,3.53 -34.95,7.02 -0.02,0 -0.04,0 -0.04,0.03 l -5.93,4.95 c -3.5,7.61 -8.84,14.32 -15.77,19.27 -5.58,3.93 -13.27,2.64 -17.22,-2.91 -3.95,-5.54 -2.66,-13.26 2.89,-17.19 1.95,-1.38 3.55,-3.13 4.98,-4.99 0.23,-3.31 1.69,-6.49 4.26,-8.79 0.49,-1.95 0.77,-3.97 0.77,-6 0,-13.17 -10.2,-23.89 -22.73,-23.89 -7.1,0 -13.66,3.4 -18.01,9.33 -3.28,4.48 -9.16,6.21 -14.34,4.22 -5.19,-1.98 -8.41,-7.2 -7.88,-12.71 l 0.29,-2.94 c 0.22,-2.34 1.13,-4.58 2.58,-6.43 4.12,-5.22 5.96,-10.2 5.96,-16.18 0,-14.9 -11.59,-27.02 -25.78,-27.02 -3.47,0 -6.7,1.13 -9.81,2.61 -1.4,1.08 -2.77,2.17 -4.17,3.26 -0.05,0.05 -0.08,0.12 -0.13,0.18 -0.19,0.2 -0.44,0.25 -0.64,0.41 -2.86,2.25 -5.78,4.45 -8.61,6.73 -5.31,4.27 -13.07,3.43 -17.35,-1.89 -4.27,-5.31 -3.43,-13.07 1.9,-17.34 2.32,-1.88 4.77,-3.73 7.14,-5.58 l 0.71,-1.11 c 0.44,-0.71 1.15,-1.18 1.74,-1.77 5.21,-6.05 8.58,-13.64 8.58,-21.84 0,-18.16 -14.13,-32.93 -31.49,-32.93 -7.63,0 -15,2.9 -20.74,8.16 z m 35.78,-30.47 c 23.04,6.62 40.08,27.82 40.92,53.33 8.47,-6 17.09,-11.85 25.8,-17.59 -6.03,-6.82 -9.79,-15.82 -9.79,-25.68 0,-6.03 1.46,-11.78 3.96,-16.93 -6.72,-0.79 -13.47,-1.57 -20.46,-2.24 -7.43,0.03 -14.5,-2.14 -20.88,-5.6 -6.64,4.85 -13.15,9.74 -19.55,14.71 z m 506.33,-96.67 c 16.82,0 35.55,-12.63 35.55,-31.47 0,-18.63 -14.46,-33.75 -32.21,-33.92 -0.37,-0.02 -1.27,-0.08 -1.27,-0.08 -1.4,-0.11 -2.3,-1.19 -3.53,-1.73 -58.07,-15.49 -135.43,-9.93 -221.45,15.97 8.9,3.62 17.79,7.39 26.69,11.37 30.15,13.43 60.46,28.88 90.46,46.27 26.29,-3.74 52.21,-6 74.98,-6.64 11.11,-0.29 21.56,-0.25 30.78,0.23 z m -71.62,27.15 c 11.13,7.07 22.11,14.3 32.71,21.72 0.92,-2.46 1.61,-4.73 1.61,-6.05 0,-7.16 -3.38,-13.64 -8.93,-17.7 -8.2,0.48 -16.72,1.16 -25.39,2.03 z m -22.03,15.19 c -58.46,-36.28 -118.35,-64.95 -176.08,-85.18 -96.49,-33.81 -186.74,-43.95 -253.24,-26.2 -1.23,0.54 -2.13,1.62 -3.54,1.74 0,0 -0.89,0.07 -1.24,0.09 -17.78,0.16 -32.22,15.28 -32.22,33.91 0,18.85 18.72,31.48 36.19,31.48 12.2,-0.66 25.49,-0.66 39.56,-0.07 104.98,4.35 256.78,43.46 377.76,118.52 l 11.21,6.95 36.31,23.52 c 1.28,-25.06 18.14,-45.76 40.89,-52.26 -23.67,-18.35 -48.9,-35.96 -75.6,-52.5 z m 144.39,228.7 c -4.57,4.03 -11.4,4.12 -16.07,0.19 -4.24,-3.54 -4.24,-3.54 -12.36,-3.54 -17.62,0 -31.96,14.99 -31.96,33.4 0,4.04 0.69,7.97 2.01,11.69 0.36,1.01 0.59,2.07 0.67,3.12 l 0.17,2.01 c 0.45,5.2 -2.42,10.1 -7.16,12.25 -4.75,2.17 -10.34,1.11 -13.97,-2.64 -4.61,-4.75 -7.15,-5.52 -18.03,-5.52 -17.61,0 -31.95,14.98 -31.95,33.39 0,11.11 5.25,21.47 14.1,27.7 5.55,3.93 6.9,11.63 2.95,17.2 -3.94,5.56 -11.62,6.87 -17.21,2.95 -15.35,-10.84 -24.51,-28.74 -24.51,-47.85 0,-32.02 25.39,-58.05 56.62,-58.05 4.28,0 8.29,0.28 12.21,0.83 1.58,-30.59 25.84,-55.15 56.06,-55.15 0.43,0 0.76,0.03 1.17,0.03 -0.35,-2.85 -0.59,-5.57 -0.59,-7.7 0,-30.03 22.4,-54.51 50.94,-57.48 -3.91,-4.12 -7.85,-8.22 -11.9,-12.32 -2.28,-1.2 -4.16,-2.98 -5.33,-5.37 -11.01,-10.9 -22.52,-21.69 -34.59,-32.3 -1.56,-0.53 -3.04,-1.38 -4.33,-2.55 -5.75,-5.28 -13.11,-8.18 -20.75,-8.18 -17.36,0 -31.5,14.77 -31.5,32.93 0,6.54 5.55,16.36 9,21.01 3.36,4.5 3.29,10.7 -0.21,15.09 -3.52,4.37 -9.49,5.87 -14.61,3.6 l -3.69,-1.61 c -0.65,-0.29 -1.27,-0.63 -1.86,-1 -1.42,-0.98 -1.42,-0.98 -4.8,-0.85 l -4.45,0.1 c -14.2,0 -25.79,12.12 -25.79,27.01 0,5.98 1.86,10.97 5.96,16.18 1.47,1.87 2.36,4.12 2.6,6.49 l 0.27,2.91 c 0.53,5.53 -2.69,10.72 -7.91,12.7 -5.15,1.98 -11.03,0.24 -14.31,-4.23 -4.34,-5.92 -10.9,-9.32 -18.03,-9.32 -12.52,0 -22.72,10.71 -22.72,23.87 0,2.05 0.3,4.08 0.77,6.02 2.57,2.3 4.06,5.47 4.31,8.78 1.41,1.87 3.01,3.6 4.94,4.99 5.55,3.93 6.84,11.65 2.89,17.19 -3.94,5.56 -11.64,6.84 -17.18,2.9 -6.94,-4.95 -12.31,-11.65 -15.8,-19.27 l -2.66,-2.22 c -0.04,-0.01 -0.08,-0.01 -0.08,-0.03 -5.98,-3.89 -12.85,-5.93 -19.9,-5.93 -20.75,0 -37.64,17.63 -37.64,39.31 0,5.84 4.39,16.93 8.84,24.85 15.79,6.01 29.17,15.03 43.55,24.88 l 18.47,12.4 c 16.12,10.28 24.61,16.68 37.95,28.6 11.52,10.28 20.51,19.07 29.06,29.43 6.9,-4.93 14.16,-5.37 23.03,-5.18 l 4.92,0.07 c 1.08,0 2.31,0.17 3.34,0.46 3.89,1.09 7.42,2.32 10.78,3.64 -0.37,-2.29 -0.62,-4.4 -0.62,-6.07 0,-33.58 26.64,-60.91 59.37,-60.91 h 0.06 c 5.37,-27.97 28.32,-49.55 57.15,-49.55 3.81,0 7.4,1.36 11.08,2.1 7.63,-21.22 27.4,-34.49 55.33,-34.49 2.69,0 5.35,0.23 8,0.62 -13.69,-23.54 -30.23,-47.32 -49.45,-70.87 -1.37,-0.59 -2.67,-1.38 -3.79,-2.48 -5.97,-6.02 -13.83,-9.32 -22.11,-9.32 -17.61,0 -31.93,15 -31.93,33.4 0,4.7 1.5,11.68 2.34,15.02 1.21,1.9 3.05,4.73 3.05,4.73 1.31,2.05 1.97,4.38 1.97,6.68 0,3.45 -1.42,6.84 -4.18,9.26 z m 152.21,243.5 c -3.44,6.76 -7.32,13.85 -11.93,20.59 0.27,0.58 0.68,1.05 0.88,1.67 13.9,49.31 23,99.5 26.87,147.44 11.17,-9.42 25.9,-15.02 42.64,-15.02 14.22,0 26.17,6.35 35.8,15.74 -2.03,-66.39 -10.76,-126.09 -26.08,-177.81 -6.09,-20.6 -15.68,-51.35 -26.62,-80.82 v -0.01 c -9.25,-24.83 -17.58,-43.67 -24.76,-56.07 -1.86,-3.22 -4.03,-6.71 -6.25,-10.31 16.81,57.7 14.59,111.39 -10.55,154.6 z m -31.44,41.64 c -4.91,3.59 -10.38,6.64 -16.61,8.84 -11.05,4.66 -20.88,6.04 -32.44,6.44 8.19,42.37 12.87,87.29 13.54,129 9,-5.6 19.45,-8.9 30.49,-8.9 10.31,0 20.03,3.06 28.63,8.19 -2.78,-46.32 -10.84,-95.2 -23.61,-143.57 z m -25.51,-14.15 c 17.24,-6.16 26.5,-22.09 35.29,-39.29 28.42,-48.84 23.67,-112.94 -7.21,-180.96 -0.47,-0.42 -1.05,-0.66 -1.46,-1.15 -6.58,-7.59 -15.98,-11.97 -25.78,-11.97 -11.57,0 -31.23,3.11 -34.24,23.37 0,0.53 0,1.07 0,1.07 0,4.1 -2.03,7.92 -5.43,10.22 -3.38,2.29 -7.68,2.77 -11.49,1.25 l -2.98,-1.19 c -3.91,-1.54 -8.03,-2.33 -12.27,-2.33 -17.79,0 -31.95,14.23 -33.94,32.24 1.17,1.74 1.71,3.69 1.71,5.66 0,2.58 -0.87,5.19 -2.32,7.54 -2.58,4.15 -8.28,6.19 -13.11,5.49 l -9.55,-1.39 c -19.14,0 -34.7,16.27 -34.7,36.26 0.06,4.62 6.13,25.63 8.9,31.81 0.04,0.09 0.04,0.18 0.06,0.28 2.5,3.49 4.96,7.26 7.44,11.59 l 10.76,14.81 c 13.93,22.4 42.91,58.06 88.54,61.28 0.16,-0.03 0.27,-0.14 0.43,-0.19 2.23,-0.47 4.37,-0.13 6.39,0.52 14.39,0 23.82,-0.25 34.96,-4.92 z m 259.55,136 c 0,-15.11 -0.37,-30.4 -1.17,-45.84 -6.06,-119.44 -33.07,-224.88 -80.32,-313.39 -8.96,-16.8 -18.75,-33.06 -29.06,-48.34 -0.17,-0.22 -50.47,-78.21 -50.47,-78.21 -13.9,-20.59 -42.19,-52.85 -58.04,-66.17 -0.2,-0.17 -1.84,-2.01 -2.04,-2.19 l -6.23,-5.97 c 0,0 -6.5,-5.32 -8.53,-6.96 -1.19,-0.71 -16.02,-9.59 -16.02,-9.59 -7.95,-4.1 -13.06,-6.43 -19,-7.1 -3.59,-0.4 -7.46,-0.18 -12.46,0.62 -0.65,0.09 -1.31,0.14 -1.94,0.14 -15.33,0 -29.41,8.56 -37.18,22.26 -0.55,2.21 -1.33,5.32 -1.33,5.32 -1.74,6.7 -3.03,11.63 -3.03,18.57 0,2.17 0.2,4.65 0.47,7.34 29.18,29.76 54.57,60.47 75.51,91.31 1.35,0.72 2.62,1.64 3.67,2.9 28.22,33.3 64.55,83.87 82.68,115.12 7.91,13.58 16.85,33.73 26.58,59.89 v 0 c 11.19,30.11 20.94,61.43 27.17,82.4 15.84,53.55 24.88,115.13 27.03,183.38 10.39,-8.36 23,-13.36 36.79,-13.36 12.45,0 24.46,4.19 34.93,11.17 4.23,2.83 8.2,6.1 11.85,9.78 0.06,-4.36 0.14,-8.7 0.14,-13.08 z m -2.5,65.45 c 0,-0.08 -0.04,-0.13 -0.04,-0.18 0,-11.27 -4.81,-22.36 -12.03,-31.16 -8.46,-10.22 -20.28,-17.31 -32.35,-17.31 -18.14,0 -33.82,14.14 -38.12,34.41 -1.17,5.56 -5.98,9.59 -11.62,9.78 -5.67,0.18 -10.74,-3.5 -12.31,-8.94 -4.98,-17.43 -18.14,-36.19 -35.17,-36.19 -22.87,0 -40.16,16.27 -40.16,37.91 0,5.8 -4.04,10.84 -9.73,12.04 -5.66,1.22 -11.42,-1.66 -13.84,-6.96 -5.67,-12.54 -17.91,-20.67 -31.19,-20.67 -13.85,0 -26.23,8.85 -31.61,21.76 -0.23,0.72 -0.39,1.45 -0.74,2.11 -0.51,1.45 -1.01,2.92 -1.33,4.46 -1.4,6.67 -7.93,10.95 -14.59,9.56 -6.68,-1.37 -10.95,-7.91 -9.59,-14.57 0.59,-2.81 1.49,-5.47 2.45,-8.11 1.87,-49.8 -3.19,-107.65 -13.95,-160.77 -40,-4.67 -75.82,-29.55 -101.91,-71.56 0.5,0.76 -10.57,-14.49 -10.57,-14.49 -0.27,-0.38 -0.53,-0.77 -0.76,-1.18 -11.23,-19.91 -19.98,-25.4 -35.63,-29.97 -1.58,-0.02 -3.36,-0.05 -3.36,-0.05 -4.12,-0.08 -6.31,-0.1 -7.91,0.57 1.8,2.79 3.66,5.68 5.53,8.83 25.43,42.14 34.84,88.65 39.75,126.62 2.26,0.38 4.49,0.99 6.66,1.83 8.36,-7.86 16.81,-9.82 22.73,-9.95 8.97,-0.18 17.62,3.52 24.32,10.46 5.56,5.72 7.65,13.03 8.59,19.1 7.03,2.01 14.61,5.16 20.88,10.56 9.18,7.9 13.95,18.28 13.95,30.2 0,1.02 -0.02,2.04 -0.08,3.07 l -3.62,13.22 -2.46,7.67 c -1.31,4.15 -3.28,9.83 -7.52,10.82 -4.21,0.99 -7.24,2.18 -10.25,-0.95 l -8.18,-8.47 c -0.92,-1.34 -2.54,-3.53 -4.16,-5.49 -1.66,1.57 -2.76,3.01 -2.76,4.6 0,2.59 2.21,5.94 6.43,12.39 5.92,9.05 14.02,21.43 15.41,38.42 l 1.5,14.02 0.69,7.37 c 8,1 15.07,4.14 20.41,9.39 4.25,4.18 8.92,11.19 10.25,22.25 12.71,-13.88 30.55,-22.11 49.53,-22.11 26.19,0 49,15.05 60.35,37.56 12.48,-12.31 30.18,-19.63 50.1,-19.63 25.61,0 47.89,16.18 59.36,40.11 6.32,-2.97 13.26,-5.24 21.87,-5.24 11.56,0 23.61,3.23 34.4,9.32 7.4,4.2 14.21,9.74 19.84,16.51 5.86,-29.53 10.1,-60.67 12.54,-92.97 z m -65.61,235 c 0,-13.16 -5.56,-24.89 -14.24,-33.13 -7.65,-7.28 -17.75,-11.84 -28.92,-11.84 -6.82,0 -15.22,4.87 -21.35,8.43 -3.59,2.09 -8.01,2.22 -11.72,0.34 -3.71,-1.85 -6.25,-5.46 -6.72,-9.61 -2.59,-22.47 -15.72,-35.9 -35.06,-35.9 -13.61,0 -26.23,7.09 -33.75,18.97 -2.91,4.63 -8.57,6.78 -13.84,5.25 -5.28,-1.53 -8.89,-6.36 -8.89,-11.86 0,-24.4 -17.25,-44.26 -38.44,-44.26 -13.47,0 -26.01,7.01 -33.49,18.73 -3.68,5.73 -11.33,7.41 -17.03,3.73 -5.75,-3.68 -7.43,-11.3 -3.75,-17.03 12.03,-18.84 32.34,-30.09 54.27,-30.09 26.68,0 49.26,18.31 58.48,43.95 10.64,-7.5 23.1,-12.07 36.44,-12.07 26.59,0 46.47,16.11 55.08,41.33 6,-2.59 12.64,-4.58 19.77,-4.58 14.9,0 28.65,5.02 39.86,13.41 9.65,7.25 17.42,17 22.27,28.38 9.65,-22.94 18.01,-47.9 24.98,-74.53 -0.02,-0.24 -0.2,-0.44 -0.2,-0.71 -1.35,-13.16 -8.45,-23.56 -17.73,-30.5 -8.17,-6.12 -17.99,-9.61 -27.19,-9.61 -7.23,0 -12.73,2.78 -21,8.26 -3.35,2.21 -7.55,2.65 -11.3,1.2 -3.73,-1.47 -6.55,-4.65 -7.5,-8.55 -5.08,-20.74 -22.5,-35.8 -41.43,-35.8 -20.1,0 -36.07,10.16 -41.72,26.49 -2.21,6.44 -9.24,9.86 -15.68,7.65 -1.64,-0.59 -3.07,-1.48 -4.28,-2.58 -3.05,-1.99 -5.29,-5.1 -5.66,-8.97 -2.27,-23.07 -20.78,-40.5 -43.11,-40.5 -15.51,0 -29.92,8.73 -37.66,22.8 -3.28,5.95 -10.78,8.12 -16.75,4.87 -1.17,-0.65 -2.09,-1.57 -2.95,-2.51 l -0.16,0.19 c -2.48,3.33 -6.81,5.72 -10.98,5.49 -4.14,-0.27 -8.24,-2 -10.29,-5.58 -1.5,-2.61 -3.3,-4.42 -4.24,-5.03 -4.55,0.53 -6.05,1.88 -6.58,2.52 -1.15,1.41 -3.26,5.41 -3.26,15.55 0,3.91 0.29,8.71 1.09,14.63 0.36,2.56 0.51,5.11 0.51,7.64 0,5.32 -1.05,10.53 -2.58,15.66 4.07,7.88 6.16,16.48 5.63,24.42 -0.45,7.14 -6.41,17.74 -7.62,19.82 -0.72,1.21 -1.68,2.27 -2.71,3.23 11.34,12.44 22.59,26.11 28.14,36.08 14.98,26.77 16.7,38.76 19.55,58.62 l 1,6.89 c 1.31,7.38 3.59,14.05 7.11,22.98 19.61,50.15 65.68,80 109.55,70.93 0.58,-0.11 3.92,-0.54 6.21,-0.86 0.64,-0.07 1.23,-0.15 1.6,-0.2 46,-13.22 86.15,-52.2 117.31,-108.65 l 0.93,-13.49"
                    style="fill:#104f8c;fill-opacity:1;fill-rule:nonzero;stroke:none"
                    id="path110" />
            <path
                    d="m 2908.56,2040.98 6.4,3.46 10.63,5.42 c 13.54,5.98 22.5,5.96 37.25,5.42 7.26,-0.28 12.32,-1.97 18.22,-3.93 l 11.31,-3.4 c 2.46,-0.73 4.8,0.72 5.52,3.16 0.75,2.44 -0.87,5.08 -3.32,5.82 l -10.58,3.18 c -6.29,2.11 -12.23,4.09 -20.82,4.4 -15.61,0.59 -25.98,0.59 -41.33,-6.18 l -11.39,-5.81 -6.15,-3.33 c -2.25,-1.22 -3.14,-4.05 -1.93,-6.3 1.23,-2.25 3.96,-3.12 6.19,-1.91"
                    style="fill:#104f8c;fill-opacity:1;fill-rule:nonzero;stroke:none"
                    id="path112" />
        </g>
    </g>
</svg>